<svg id="Layer_1" data-name="Layer 1" xmlns="http://www.w3.org/2000/svg" viewBox="0 0 577.01 900.89"><defs><style>.cls-1{fill:#c2c2c2;}.cls-2{fill:#fefefe;}.cls-3{fill:#fafafa;}.cls-4{fill:#fdfdfd;}.cls-5{fill:#fcfcfc;}.cls-6{fill:#f9f9f9;}.cls-7{fill:#fbfbfb;}.cls-8{fill:#f2f2f2;}.cls-9{fill:#ececec;}.cls-10{fill:#f7f7f7;}.cls-11{fill:#f6f6f6;}.cls-12{fill:#f8f8f8;}.cls-13{fill:#e6e6e6;}.cls-14{fill:#f3f3f3;}.cls-15{fill:#e7e7e7;}.cls-16{fill:#f4f4f4;}.cls-17{fill:#e5e5e5;}.cls-18{fill:#f5f5f5;}.cls-19{fill:#ebebeb;}.cls-20{fill:#eaeaea;}.cls-21{fill:#efefef;}.cls-22{fill:#e3e3e3;}.cls-23{fill:#c7c7c7;}.cls-24{fill:#ccc;}.cls-25{fill:#c9c9c9;}.cls-26{fill:#e9e9e9;}.cls-27{fill:#f0f0f0;}.cls-28{fill:#c8c8c8;}.cls-29{fill:#d7d7d7;}.cls-30{fill:#c3c3c3;}.cls-31{fill:#c6c6c6;}.cls-32{fill:silver;}.cls-33{fill:#cbcbcb;}.cls-34{fill:#cacaca;}.cls-35{fill:#bfbfbf;}.cls-36{fill:#1e1e1e;}.cls-37{fill:#131313;}.cls-38{fill:#383838;}</style></defs><title>background</title><path class="cls-1" d="M586.5,871.89q-286.32,0-572.62.07c-2.82,0-3.45-.63-3.45-3.44q.11-448.32.07-896.63c1.3-.69,2.7-.35,4.05-.35H582.28c5.13,0,4.58-.56,4.58,4.62q0,445.85,0,891.71C586.85,869.2,587.18,870.6,586.5,871.89Z" transform="translate(-10.43 28.93)"/><path class="cls-2" d="M586.5,871.89q0-447.28,0-894.57c0-6.11.72-5.42-5.35-5.42H10.5c.16-.23-.38-.78.38-.76,1,0,2,0,3,0q285,0,570-.07c2.82,0,3.45.63,3.45,3.45q-.11,447-.12,894C587.2,869.61,588.07,871.06,586.5,871.89Z" transform="translate(-10.43 28.93)"/><path d="M135.68,386.68c2.31,1.36,4.82.5,7.23.58,4.87.15,9.75,0,14.62.07.84,0,2.35-.59,2.29,1,0,1.42-1.46,1.05-2.39,1.06-6.87,0-13.75,0-20.62,0-3.83,0-3.21-3.2-4.27-5.69-5.88,5.08-12.95,3-19.65,3.42-2.67.15-3.41-2.28-4.54-3.81s-4-2.71-5.54-1.3c-2,1.83-7.47,2.67-9.18.92-3.33-3.41-6.43.93-9.58-.1-.28,2.85-2.07,5.55-1.32,8.44a20.69,20.69,0,0,1-.07,11.95c-.75,2.28-.37,4.17,2.21,4.85s3.21,2.55,3.14,5.06c-.17,6.42,1,13-3.89,19,2.13,0,3.37,0,4.6,0,2.41-.12,3.94.75,3.73,3.4-.15,2,.88,2.21,2.51,2.2,14.13,0,28.25-.07,42.37,0,2.1,0,2.51-.79,2.44-2.64-.11-3.24,0-6.49,0-9.74,0-2.87,1.69-3.34,4.15-3.49,2.77-.17,2.62,1.39,2.61,3.26q0,21,0,42c0,2.32-.16,4.28-3.23,4.32s-3.5-1.88-3.57-4.42c-.09-3.69,1.68-8.74-.75-10.7s-7.15-.62-10.87-.64c-10.75,0-21.5,0-32.25,0-2.11,0-3.64,0-3.42,2.87.17,2.19-1.44,2.9-3.48,2.87-3.2-.06-6.4,0-9.83,0,.35.62.44,1,.57,1,6.06.6,6.06.59,6.06,6.82,0,4.38-.06,8.75,0,13.13,0,2.65-1,3.92-3.74,3.84-4-.1-7.71,1.3-11.74,1.17-3.48-.11-6.67-1.7-10.22-1.3-1.39.16-2.45-1.18-2.35-2.8.33-5.44-.78-10.94.61-16.34a1.46,1.46,0,0,0,0-1c-1.85-3.32.17-3.49,2.68-3.46,1.06,0,2.25.48,3.33-.61-2.08-1-4.19-.44-6.2-.44-2.64,0-3.91-1-3.89-3.73q.08-11.07,0-22.13c0-1.39.41-3,1.59-3,4.36-.12,2.25-3.58,1.6-4.2-2.77-2.61-1.81-5.75-1.95-8.74-.1-1.87.15-3.77-.06-5.62-.36-3.11.52-5.3,3.71-6.26s2.1-3.72,1.58-5.53a18.31,18.31,0,0,1,0-10.82c.88-2.84-1.24-5.38-1.06-8.22,0-.64-8.36-1.24-9.14-.66-2.59,1.92-7.64,1.74-9.87-.39-1.28-1.22-2.83-.57-4.23-.58-1.75,0-2.44-.54-2.41-2.36.08-5.25.06-10.5,0-15.75,0-1.59.72-3.17,2.07-3.06,4.93.44,9.74-3.42,14.74-.31.73.45,2,.13,3,.13,10.5,0,21,.06,31.5,0,3.28,0,6.52.3,9.85-1,1.9-.72,4.44-.34,6.84.49,2.64.91,6.21,2,7.71-2.36.5-1.47,2-1.68,3.43-1.66,4.25.06,8.51-.14,12.74.09,2.37.13,4.44,2,7.18,1.49,0-1.36,0-2.84,0-4.31.07-1.73,1-2.94,2.74-2.9,5.28.14,2.5-3.78,2.84-5.85.51-3.11-2.21-1.86-3.64-2-2.49-.18-5-.07-7.5,0-2.3,0-3.46-1.05-3.46-3.39,0-15.37,0-30.75,0-46.12,0-1.93.87-2.26,2.51-2.26q20.06.06,40.12,0c2.81,0,3.63,1.38,3.61,4-.08,9.5,0,19,0,28.5,0,1.88-.3,3.32,2.58,3.8s1.73,3.64,1.92,5.74-1.24,1.85-2.49,1.78c-2.92-.17-2.13,2.07-1.93,3.38.58,3.92-1,5.19-4.73,4.6a24.53,24.53,0,0,0-3.74,0c-5.41,0-5.32,0-5.15,5.51,0,1.75.46,2.48,2.32,2.34,2.7-.19,3.24,1.54,3.32,3.85.11,3.12-.57,6.3.28,9.44.42-.12.6-.13.61-.18.94-6.34,1.07-7,9.48-7.42,3-.14,6,.16,9-.08,2.65-.21,4.57.31,5.27,3.13.43,1.75,1.71,1.76,2.91,1.22,3.45-1.54,6.71-1.18,10.28-.1,2.53.76,5.45.25,8.19.26.32,0,.9-.27.92-.45.2-1.85-.17-3.91.54-5.51.85-1.89,1.14-3-.21-5a7.47,7.47,0,0,1,.13-8.92c1.32-1.94,2.26-3.73-.83-5.27a4.67,4.67,0,0,1-2.71-4.52c.2-6.08.1-12.18.06-18.26,0-1.52.94-1.45,2-1.53,1.82-.14,3.7.42,6-.54-2.5-1.35-4.8-.77-6.93-.68-3.17.13-4.57-.92-4.5-4.25.15-6.87.18-13.75,0-20.62-.08-2.78,1-3.43,3.46-3.24s5,0,7.94,0c-.5-.78-.6-1.09-.72-1.1-7.5-.7-8.36-1.65-8.36-9.24,0-2.88,0-5.75,0-8.63,0-5.19.65-5.78,5.69-5.78,1,0,2.22.63,3.27-.92-4.75.06-4.52-3.06-4.49-6.28.09-8.5-.06-17,.09-25.5,0-2.5-.43-3.84-3.2-3.32-3.12.59-3.79-.9-3.67-3.75.21-4.87.18-9.75,0-14.62-.1-2.52.79-3.49,3.21-3.05,3,.54,3.73-.74,3.66-3.65-.2-8.62-.09-17.25-.06-25.87,0-1.69.22-3.07-2.31-3.22-1.78-.11-2.27-1.9-2.23-3.73.09-4.5.06-9,0-13.5,0-1.2.7-3-1.71-2.87s-1.54,1.86-1.56,3c-.08,4.38-.12,8.75,0,13.13.07,2.78-.91,4.13-3.86,4.13q-61.5-.06-123,0c-2.76,0-3.69-1.28-3.69-3.91q.07-37.12,0-74.25c0-2.36.72-2.9,3-2.9q61.68.09,123.37,0c3,0,4.38,1,4.25,4.12-.17,3.87.18,7.77-.11,11.62-.23,3,.9,3.46,3.58,3.42,10.5-.16,21,0,31.5-.12,3.3,0,4.75,1.25,4.26,4.41-.56,3.62,1.47,3.66,4.17,3.66s4.28-.23,3.89-3.57c-.34-2.84,0-5.75-.09-8.62-.08-2.52,1-3.7,3.53-3.65q4.88.09,9.75,0c2.29,0,3.54.84,3.54,3.26q0,25.31,0,50.62c0,3.05-2.39,3.2-4.3,3.35-3.35.28-6.75,0-10.12.12-2.13.1-2.47-.88-2.42-2.68.1-3.5-.05-7,.06-10.5.06-1.84-.33-2.64-2.44-2.67-5.1-.07-5.15-.21-5.52,4.83-.11,1.56-.69,3-2.14,3-2.94,0-2.38,1.88-2.38,3.55,0,4.38,0,8.75,0,13.13,0,1.64-.33,3.45-2,3.52-3,.12-2.58,1.92-2.58,3.79q0,12.93,0,25.87c0,1.6-.4,3.2,2.29,3.22s2.09-1.65,2.25-3.19c.47-4.33,3.19-7.62,5.69-10.82a41.12,41.12,0,0,1,23.21-15.1,37.5,37.5,0,0,1,21.49,1.29A40.87,40.87,0,0,1,311,193.2c2.53,5.27,4.57,11,4.11,16.75-1.36,17.18-8.68,30.44-27.18,38.27-8.29,3.51-17.48,3.4-26.31.21-11.15-4-19.14-11.45-24.38-22a5.51,5.51,0,0,1-.7-2.79c.06-1.69.24-3.12-2.36-3.05-2.76.07-2.15,1.83-2.16,3.33q0,12.38,0,24.75c0,5.91,0,5.91-5.77,7.46,2.09,1.05,4,.71,5.66.5,3.39-.42,4.51,1.61,4.55,4.25.08,5.92.54,11.87-.94,17.74-.33,1.31-.89,1.59-2,1.57a14.89,14.89,0,0,0-4.54.45c3.31,1.38,6.73.68,10.09.76,1.93,0,3.3,0,3.22,2.68-.08,3.35,2.74,1.43,4.24,1.81s2.57-.23,2.48-2.18c-.13-2.87,0-5.75-.06-8.62-.07-1.79.25-2.71,2.4-2.7q23.43.12,46.87,0c2.55,0,3.58,1.1,3.58,3.62-.05,12.5-.07,25,0,37.5,0,2.92-1.22,3.95-4.06,3.93-9.62-.09-19.25-.06-28.87,0-1.36,0-3.29-.65-3.1,1.92.22,3-2.14,3.1-4.08,3.62-2.5.67-4.24-.61-4.61-2.82-.53-3.08-1.45-3.18-4.15-2-3.26,1.45-3.6-1.75-3.87-3.73a41.89,41.89,0,0,1-.05-8.23c.15-2.29-1.13-2.58-2.76-2.25s-4.17-1.48-4,2c.11,2.88-1.53,3.59-4,3.51-3-.09-6.1,0-9.12,0-.07,1,.33,1.22.88,1.26,5.16.38,6.42,1.64,6.56,6.95.11,3.87-.09,7.75.06,11.62.11,2.67-1.93,4.56-3.25,5.77-2.08,1.9-1.5,3.78-1,5.27a13.35,13.35,0,0,1-.08,10.31,7.56,7.56,0,0,0-.21,2.95c0,10.75,0,21.5,0,32.25a27.45,27.45,0,0,0,3.24,13.57c2.75,5.15,1.38,11.14.74,16.77a21.89,21.89,0,0,0-.51,2.83,2.74,2.74,0,0,1-2.34,2.91c-1.38.32-3.81-.71-3.29,2.07.4,2.09-2.19,5.61,2.46,6a.84.84,0,0,1,.79,1c-.11.86-.82.8-1.41.87-2.69.29-5.44-.51-8.09.48,2.91,1,6-.25,8.92.67,1.44-.75,2.3-1.73,3.11,1.12,1.58,5.55.44,11.06.87,16.56a2,2,0,0,1-.39,1.39c-4.67,4.82-3.49,11-4.1,16.84-.21,1.95.57,2.72,2.54,2.51,1.61-.17,3.39-.36,3.31,2.16-4.69,2.11-7.52,1.22-9.28-3.16-.66-1.65-1.58-2.43-3.28-2.44-3.12,0-6.24-.05-9.36,0-2.14,0-3.19,1.06-3.21,3.22-.07,8,0,16,0,23.95,0,2.57,1.32,3.53,3.75,3.51,2.87,0,5.74,0,8.61,0,2.1,0,3.3-.78,3.42-3,.15-2.63,1.75-3.78,4.22-3.71,3.21.09,4-1.7,4-4.5-.08-3.12,0-6.24,0-9.36,0-1.62,0-3.27,1.11-4.62,5.07-1.89,10.1-3.41,15.56-1.06,1.71.74,3.58.57,3.56-2.49,0-2.44,1.69-4.07,4.34-4.1,4.12-.05,8.25,0,12.37,0,.5,0,1.3-.12,1.45.13,2.48,4.05,4.69,1.76,6.91-.25a5.15,5.15,0,0,1,3.77-1.1c6.5.05,13,.15,19.5,0,3.43-.1,4.81,1.21,4.49,4.6-.16,1.77,0,3.57,0,6.35.77-1.27,1.08-1.56,1.11-1.87.51-5.13,2.08-6.66,7.23-6.77,3.5-.07,7,0,10.49,0,5.66,0,5.66,0,6.2,5.42,5.55-3.27,11.38-1.78,17.54-1.69.34-1.6.59-3.75,3.89-3.85,3.69-.11,5.28,1.41,5.25,4.77,0,2.05,1,2.11,2.53,2.15,1.73,0,2-.74,2.08-2.26.37-6.79.42-6.79,7.22-6.79a43.58,43.58,0,0,1,5.24,0c2.39.29,4.73.87,4.29,4.17-.26,1.92.48,2.65,2.5,2.59,4.37-.14,8.75-.1,13.12,0,1.68,0,2.49-.33,2.44-2.24-.12-4.5-.1-9,0-13.5,0-1.78-.57-2.27-2.35-2.37-2.83-.15-4.67-1.82-4.39-4.81.25-2.69-1-3-3.21-3-10.13.1-20.25.05-30.37,0-4.27,0-5.77-1.51-5.78-5.78,0-9,.09-18.08-.05-27.11-.05-3.27,1.2-4.45,4.42-4.33,4.86.17,9.74,0,14.61.08,1.78,0,2.56-.51,2.34-2.33a16.65,16.65,0,0,1,0-1.87q0-80.79.09-161.57c0-3.57-1.05-4.38-4.33-4.16-4,.28-8,.11-12,.06s-5-1.5-5.15-5.33c-.21-7.67.64-15.33-.43-23a17.49,17.49,0,0,1,.72-7c.58-1.86,2.39-1.8,4.08-1.79,10.5,0,21-.06,31.49.08,2.64,0,4.09-.41,3.53-3.39s.8-3.9,3.53-3.41,3.42-.7,3.27-3.28c-.22-3.61-.14-7.25,0-10.87.08-2.68.12-5.24-2.48-7-1.13-.73-.86-2-.86-3.09q0-13.48,0-27c0-1.09-.35-2.6.88-3,3.16-1.07,2.4-3.57,2.42-5.79,0-4.25-.07-8.5,0-12.75.05-1.84-.29-2.78-2.42-2.63-3.28.23-5.27-.67-4.46-4.75a33.3,33.3,0,0,0,.05-8.23c-.13-2.17.69-2.94,2.79-2.74,1.36.13,2.75-.06,4.12,0,2,.16,2.12-1,2.18-2.56.07-1.8-.8-2.1-2.27-2-2.28.17-4.5-.09-4.47-3,0-2.35-1.19-5.3,3-6,2.25-.39.84-3.19.76-4.41-.23-3.32-.94-6.49.54-9.73A1.88,1.88,0,0,0,399.31,73c-2.16-.68-3-3.13-2.92-4.75.15-5.51-1-11,.87-16.58.91-2.67,2-3.33,4.4-3.23a2.65,2.65,0,0,0,2.77-1.09c-2.4,0-4.22-.12-6,0-3.17.25-4.54-1-4.47-4.29.14-6.49.11-13,0-19.49,0-2.83.67-4.67,3.92-4.41,1.9.15,2-1,1.76-2.41,2-.59,4-.13,5.23-.24-1.18.25-3.22-.57-5.15.32-3,.19-3.18-2.28-3.41-4.13-.63-5,.65-10.13-.57-15.21-.16-.68,2.23-2.73,3.57-2.86,5.16-.51,9.86-3.87,15.32-2.5,1.22.31,2.51-.34,3.27,1.59.59,1.5,2.68.62,4.09.66,4.28.11,5.72,1.5,5.73,5.83,0,3.5-.07,7,0,10.5.08,2.72-.47,4-3,1.65-.72,1.31.91,1.55.72,2.46-.88,4.25,1.55,4.78,4.86,4.35,1.16-.15,2,.22,1.92,1.59-.15,5.26,3.83,2.42,5.92,2.8,3.13.57,2-2.16,2-3.59.14-11.1-1.21-9.77,9.77-9.8,12.75,0,25.5,0,38.25,0,4.53,0,4.82.3,4.82,5q0,17.45,0,34.88c0,5-.17,5.15-5,5.15-9.38,0-18.75,0-28.12,0-1.94,0-2.9.25-3,2.58-.1,2.92-2.67,3-4.87,3.14s-4-.42-3.95-2.8c.13-3.93-2.31-3.42-4.28-2.41-2.91,1.48-3.39-.38-3.54-2.25a57.41,57.41,0,0,1,0-9c.19-2.55-1-3.19-3.08-2.69-1.76.43-5.15-1.83-4.85,2.33.22,3.12-1.18,3.5-3.72,3.35-3.18-.18-6.38,0-10.54,0,1.24.74,1.59,1.12,1.82,1.06,4.95-1.26,6.41,2.54,6.59,5.73.32,5.85,1.24,11.89-1,17.65-.17.43-.36,1.17-.6,1.2-4.38.45-1.79,3-2.08,5.15-.38,2.73.45,5.13.54,7.67.07,1.62-2.3,4.16,1.77,5,1.07.22.56,4.18.21,6.35-.23,1.45-1.61,2.16-3.18,1.94-1.94-.27-2.21.75-2.25,2.4-.06,2.06,1.07,2.09,2.59,2.15,7.29.3,7.21.32,5.92,7.78-.25,1.43.33,3,.55,4.52.35,2.46-.39,3.91-3.17,3.4-3-.54-3.83.76-3.65,3.66.25,4,0,8,.07,12,0,2.12-.35,4,2.31,5.52,2.5,1.39.63,4.64.79,7,.54,7.84.2,15.73.21,23.61,0,.88.1,2-.75,2.37-3.49,1.34-2.5,4.27-2.55,6.79-.06,3.75.09,7.5-.05,11.25-.08,2.22.2,3.6,2.95,3.22s4.16.93,3.8,3.64c-.4,2.94,1.07,3.15,3.43,3.12,10-.11,20,0,30-.07,4.25,0,6.24,1,6,6-.38,8.44-.1,16.91-.11,25.37,0,5.27-.57,5.83-5.63,5.83-4.13,0-8.26.15-12.38-.06-2.56-.13-3.41.55-3.36,3.26.18,9,.07,18,.07,27q0,67.88-.07,135.75c0,3,.55,4.19,3.8,4,4.23-.3,8.49-.09,12.74-.07,3.18,0,4.82,1.67,4.83,4.82,0,9.5,0,19,0,28.5,0,3.57-2.62,3.78-5,3.81-10.25.1-20.5.12-30.75,0-2.6,0-4.06.31-3.58,3.37.53,3.4-1.09,4.92-4.49,4.49-1.91-.24-2.3.7-2.26,2.4q.12,6.75,0,13.5c0,1.63.49,2.19,2.14,2.15,4.5-.09,9-.13,13.5,0,2.1.07,2.61-.79,2.41-2.64-.33-3,1-4.33,4.11-4.19,3.37.15,6.75.1,10.12,0,2.71-.07,3.74,1.14,3.78,3.81.11,6.41.19,6.41,6.48,6.41,10.37,0,20.75-.18,31.12.09,3.49.1,4.17-1,4-4.21-.26-5.48-.1-11-.06-16.49,0-4.41,1-5.34,5.36-5.34H561c5,0,5.18.15,5.19,5,0,18.5-.07,37,.06,55.5,0,3.52-1,4.86-4.7,4.83-19-.13-38,0-57-.06-4.57,0-4.8-.25-4.8-5,0-5.75-.07-11.5,0-17.25,0-2-.59-2.56-2.56-2.55q-18.18.12-36.37,0c-2.13,0-2.72.6-2.74,2.74-.08,7.51-1.11,8.13-9,6.8-1.55-.26-3.13.79-4.86.77-2.81,0-4.36-1-4-4,.29-2.37-.62-3-2.92-2.92-4.11.17-8.25.14-12.37,0-2-.07-2.9.4-2.8,2.65.17,4.24.11,8.5,0,12.75,0,1.8.28,2.68,2.41,2.73,2.91.06,4.43,1.84,4.38,4.84,0,2.37-.16,4.76,0,7.12.29,3.54-1,5.19-4.69,4.78a18.78,18.78,0,0,0-3,0c-1.78.09-1.28,1.48-1.35,2.51s0,1.9,1.47,2,3.38-1,3.91,1a9.06,9.06,0,0,1-1.15,7.47c-.91,1.38-2.35,5.72-1.79,6.86,1.3,2.62,1.1,5.05.06,7.77-.59,1.56-1.32,3.38-.38,5.39a3.54,3.54,0,0,1-.41,3.87c-.59.6-2.24.33-1.58,1.88.44,1,1.51.63,2.33.7,3.41.31,4,3.06,4.21,5.54a79.41,79.41,0,0,1,0,11.23c-.12,2.13-2.31,3.85-1.42,6.34.1.28-1,1.44-1.51,1.42-5.73-.19-4.67,4.83-4.76,7.42-.43,13.49-.15,27-.25,40.49,0,2.33.69,3,3,2.93,5.25-.17,10.5,0,15.75-.09,2.69-.05,3.85,1,3.85,3.75q-.06,29.43,0,58.87c0,2.18-.7,2.74-2.79,2.7-5.62-.13-11.25.06-16.87-.1-2.35-.07-2.95.71-2.93,3,.09,13.87,0,27.75.09,41.62,0,2.55.48,4.66,4.11,5.16,3,.41,4.46,3.73,4.74,6.6a100.06,100.06,0,0,1,.08,12.37c-.07,2.74-1.63,4.23-4.39,4.54-1.13.12-2.92-.8-3.24.81s-.92,3.57.65,4.93a4.55,4.55,0,0,1,1.44,4.37c-.41,3.37,1.26,6.67.93,9.84-1.09,10.28-.82,20.57-1,30.86,0,3.25-7,8.86-10.79,8.68-6.28-.3-12.65,1.06-18.85-1-2.13-.7-3.91,1.1-6.08,1.15-3.51.08-6.82-.88-10.23-1.14-2.62-.2-4.92.26-6.33,3.12a4.48,4.48,0,0,1-4.62,2.48,51.69,51.69,0,0,0-10.48,0c-2.69.36-3.91-2.08-6-2.29-3.09-.3-3-2.25-3.15-4.48-.11-1.74-1.67-1-2.66-1.14-26.1-2.51-52.28-.45-78.41-1.28-8.84-.28-17-3.33-24.56-8.09a62.31,62.31,0,0,1-13.18-11.19A54.11,54.11,0,0,1,215,795.48c-1.76-5.83-2-11.54-2-17.42q0-108.37,0-216.74c0-3.75-1.22-6.57-5-7.88a2.55,2.55,0,0,1-1.66-1.89c-.09-.49.12-1.32-.12-1.45-6-3.35-2.47-9.05-3.36-13.64a12,12,0,0,1,0-3c.08-1.19,1-1.26,1.9-1.27,1.81,2,1,4.5,1.13,6.79.15,2-.24,4,.45,5.92a1.91,1.91,0,0,0,2,1.43c1.16-.06,1.35-1,1.39-1.87.15-3.22.16-6.46,0-9.69a1.91,1.91,0,0,0-2.12-2.06,5,5,0,0,1-2.9-.44c.63-1.8,1.28-3.36,3.73-3.42s3.59-2.5,1.84-4.23a3.8,3.8,0,0,1-.34-5.14c1.44-2.18.47-3.61-.3-5.41-1.44-3.38-2.31-6.81.63-9.94a2,2,0,0,0,.53-2.08c-2.42-5.89-1.06-12-1-18,0-6.5-1.37-13.13,1-19.54a1.7,1.7,0,0,0-.58-2c-1.91-1.25-1.69-3.15-1.64-5s.3-3.76-1.62-5c-.82-.55-.63-1.57-.63-2.43,0-6-.06-11.93.1-17.89.05-1.55,1.43-2.26,3-2.15s3-.33,2.41-2.18,2.1-5.06-1.79-5.74c-1.81-.31-1.27-1.48-1.5-2.45,3.44-.62,6.91-.15,8.7-.2-1.76.22-5.22-.6-8.62.28-1.42.17-2.37,0-2.32-1.89.18-6.22.18-12.45.36-18.67,0-1.47,1.43-2.49,2.11-3.68,2-3.61,1.73-7.06.87-10.72a5.17,5.17,0,0,0-.41-1.72c-.38-.59-8.58-.75-9.2-.29-1.91,1.42-8.13,1.68-9.78.08-1.82-1.77-2.86-1.76-3.47.79-.56,2.3-2.16,2.63-4.18,2.43-5.27-.52-10.53.47-15.9-.83-3-.72-3.23-1.74-3.1-4a17.53,17.53,0,0,0-.23-2.68h-1c0,2.13,0,4.25,0,6.37,0,.81.4,2-.8,2.2-1.68.33-.93-1.4-1.5-2-1.63-1.46-1.26-3.44-1.28-5.26-.06-7.24,0-14.47,0-21.71,0-4.33-.37-4.65-4.73-4.69s-9,.07-13.48,0c-3-.06-4.22,1.26-4.19,4.25.05,8.24,0,16.47,0,24.71A11.85,11.85,0,0,1,135.68,386.68Z" transform="translate(-10.43 28.93)"/><path class="cls-2" d="M135.68,386.68c-1-4.79-.3-9.64-.42-14.45-.14-5.49.11-11-.09-16.48-.1-2.72.53-3.73,3.47-3.61,6,.25,12,.24,18,0,2.66-.1,3.41.82,3.39,3.25-.09,9.86-.09,19.73-.12,29.59-.43,1.89-1.92,1.57-3.26,1.58Z" transform="translate(-10.43 28.93)"/><path class="cls-3" d="M232.47,433.08l-8.81.05c-.1,0-.29-.14-.28-.2a1.86,1.86,0,0,1,.17-.52C226.49,433,229.58,431.82,232.47,433.08Z" transform="translate(-10.43 28.93)"/><path class="cls-1" d="M309.67,489.12c1.6,1.7,1,3,1.06,4.18s.75,2.6,1.69,2.63c3.23.09,6,2.2,9.45,1.55,2.3-.43,4.74-.08,7.11-.08,2.63,0,5.38.46,5.62-3.61A2.4,2.4,0,0,1,338,492.4c4.24,2.36,8.74,1.51,13.18,1,.66-.08,1.11-.46,1.31.44.65,3,3.09,2.2,5.1,2.39,2.6.25,4.49-.12,3.86-3.47-.31-1.62.47-2.16,2.1-2.16s2.64.36,2.42,2.29c-.11,1,0,2,0,3-.16,2.71,1.15,4.19,3.77,3.71s5.33.07,8,.08c3,0,4.84-1.37,5-4.29.09-2,.7-2.57,2.62-2.52,4.38.12,8.75.11,13.13,0,1.73,0,2.43.4,2.38,2.27-.12,4.5-.11,9,0,13.5.05,1.87-.71,2.48-2.43,2.28-3.56-.42-5,1.46-4.3,4.66.56,2.72.12,5.33-.08,8-.22,3.05,1.1,4.43,4.16,4.16.75-.06,1.51.06,2.25,0,1.85-.22,2.69.33,2.68,2.42s-1,2.24-2.56,2.11c-2.2-.19-4.09.22-4.24,2.91s-.16,5.21,3.1,6c.85.21,1.33.2.89,1.32-1.27,3.24-1,6.77-.38,9.92s1.36,6.19.26,9.48c-.21.62,1.65,1.51,2.28,2.75,1,1.93.63,2.49-1.34,2.53-3.63.08-5.25,1.66-4.89,5.51.49,5.25-.81,10.65,1.29,15.76.7,1.69,1,4,3.85,3.49.72-.12,1.68-.07,1.62,1-.16,2.86,1.39,5.34,1.34,8.29-.24,12.62-.2,25.25,0,37.87,0,2.9-.81,3.59-3.57,3.46-5-.23-10,0-15-.1-2.85-.07-4.05,1-4,3.93q.09,28.68,0,57.37c0,2.87,1.05,4.08,4,4,5.12-.12,10.25.07,15.37-.09,2.32-.07,3.29.35,3.26,3-.14,13.87,0,27.74-.09,41.62,0,2.88-.76,4.88-4.58,5.11-3.22.19-3.85,4-4.22,6.43-.63,4.15-.29,8.48-.13,12.72.1,2.74,1.79,4.12,4.55,4.4,1.13.11,3.17-1.05,3.13,1.3,0,1.45,1.3,3.53-1.4,4.37-1.22.38-1.36,1.27-1,2.86.84,3.62-.26,7.29-.71,10.95-.62,5,1,10.08,0,15.2-.34,1.62-.5,2.59-2.36,2.35-2.91-.38-5.81.4-8.8-.84a10.3,10.3,0,0,0-7,0c-2.49.92-4.89.54-7.29.89-2.61.39-4.27-.62-5-3-.61-2.08-1.88-2.66-3.87-2.62-3.88.08-7.75,0-11.63,0-3.35.05-7.51,3.29-8.15,6.4a1.47,1.47,0,0,1-1.75,1.4c-5.93-.1-11.69,1.39-17.67,1.3-20.12-.3-40.25,0-60.37-.16-7.09,0-13.54-2.66-19.42-6.41a39.8,39.8,0,0,1-17.27-22.87c-.87-3-1.83-6-1.82-9.26q.11-111.18.06-222.36c0-3.3-.45-6.29,4.54-7.24,2.09-.4,4.19-4.48,4.4-7.73.24-3.73.08-7.5.05-11.25S235,528.84,231.4,529c-3.06.14-3.31-1.76-2.6-3.45s1.5-3.42,2.14-5.18c.16-.44.89-.82.84-1.16-.66-5,3.31-9.8.41-15.11-1.06-1.93-.22-4.91-.19-7.41,0-.44.39-1.27.51-1.25,3.22.45,6-2.46,9.29-1.18a14.69,14.69,0,0,0,10.72.07c2.18-.77,4.26-.8,5.32,1.66.41,1,.78,1.47,1.8,1.41,6.82-.4,13.85,1.31,20.35-2.06a3.12,3.12,0,0,1,.39,2.91c-.54,2.87,1,4.18,3.42,4.63,4.54.84,1.6,4.19,2.07,6.27.55,2.47-1.84,1.61-3.14,1.75-3.3.35-7.57-1.45-9.68.8-1.91,2-.52,6.21-.54,9.43-.06,12.25.07,24.5-.08,36.75,0,3.52,1.11,4.88,4.73,4.83,12-.15,24-.13,36,0,3.27,0,4.41-1.19,4.36-4.4-.13-9.38,0-18.75-.06-28.13,0-1.88-.36-3.51,2.61-3.77,2.16-.19,3.65-2,3.15-4.77-.43-2.4-1.78-2.9-3.91-2.94-3.11-.07-2.14-2.7-1.55-3.81,1.84-3.5-.21-3.86-2.75-3.94-2.87-.1-5.75-.13-8.62,0-2.13.1-2.88-1-2.35-2.7s-2-5,2-5.23c3.06-.15,3.8-1.62,3.7-4.29C309.58,495.77,309.67,492.79,309.67,489.12Z" transform="translate(-10.43 28.93)"/><path class="cls-2" d="M136.12,164.41c-19.74,0-39.48-.06-59.22.06-2.78,0-3.57-.65-3.55-3.5q.18-34.86,0-69.72c0-3,.9-3.41,3.57-3.4q59.4.14,118.81,0c2.82,0,3.8.53,3.78,3.62q-.21,34.66,0,69.34c0,3.08-.92,3.68-3.79,3.66C175.85,164.35,156,164.41,136.12,164.41Z" transform="translate(-10.43 28.93)"/><path class="cls-2" d="M412,323.26c0-27,0-54-.07-80.95,0-2.95.74-3.79,3.72-3.72,8.62.2,17.24.13,25.86,0,2.26,0,3.25.3,3.25,3q-.14,81.88,0,163.77c0,2.43-.59,3.19-3.1,3.15-8.74-.15-17.49-.19-26.23,0-2.92.07-3.48-.88-3.47-3.59C412,377.72,412,350.49,412,323.26Z" transform="translate(-10.43 28.93)"/><path class="cls-2" d="M378.23,323.66c0-27.1,0-54.21-.06-81.32,0-2.88.63-3.84,3.68-3.76q12.16.34,24.35,0c3.09-.1,3.59,1,3.59,3.75q-.12,81.33,0,162.64c0,2.65-.41,3.67-3.39,3.58-8.24-.24-16.49-.22-24.73,0-2.88.08-3.51-.8-3.5-3.56C378.27,377.88,378.23,350.77,378.23,323.66Z" transform="translate(-10.43 28.93)"/><path class="cls-2" d="M238.73,209.86a89.67,89.67,0,0,0-.07-10.11c-.68-6.14,2.72-10.5,6.05-14.82,5.28-6.85,12.79-10.72,20.89-12.5,10.72-2.34,21-.27,30.48,5.78,8.74,5.56,13.64,13.81,15.63,23.28,3.14,15-1.23,28.29-13,38.33-5.45,4.63-12.08,7-19.5,8.06-8.92,1.28-16.7-1-24.31-4.72s-12.39-10.16-16-17.6a6.5,6.5,0,0,1-.16-2.59C238.72,218.6,238.73,214.23,238.73,209.86Z" transform="translate(-10.43 28.93)"/><path class="cls-2" d="M532.88,451.22c9.36,0,18.73.06,28.1-.05,2.24,0,3,.49,3,2.88q-.15,27.56,0,55.1c0,2.4-.79,2.87-3,2.87q-27.91-.12-55.84,0c-2.38,0-3.23-.5-3.22-3.06q.16-27.36,0-54.72c0-2.54.81-3.11,3.22-3.08C514.39,451.3,523.63,451.22,532.88,451.22Z" transform="translate(-10.43 28.93)"/><path class="cls-2" d="M439,675.31c0,9-.11,18,.07,27,.05,2.7-.77,3.27-3.34,3.25q-24.34-.18-48.7,0c-2.39,0-3.16-.55-3.15-3.06q.17-27.36,0-54.7c0-2.51.74-3.11,3.16-3.09q24.54.15,49.07,0c2.32,0,3,.62,2.94,2.93C438.91,656.83,439,666.07,439,675.31Z" transform="translate(-10.43 28.93)"/><path class="cls-2" d="M215.17,667.49c0-35.48,0-71-.07-106.44,0-3.14.5-4.37,4-4.18,6.12.34,6.13.09,6.13,6.1q0,105.69.09,211.38c0,3.75-1.08,4.9-4.58,4.34a14.61,14.61,0,0,0-3.37,0c-1.56.1-2.37-.45-2.21-2.12.07-.74,0-1.5,0-2.25Z" transform="translate(-10.43 28.93)"/><path class="cls-2" d="M316.58,513.16c-1.6,1.68-1.35,3.31-1.35,4.89,0,12.87-.07,25.74.06,38.61,0,2.77-.45,3.9-3.61,3.83-11.12-.21-22.24-.16-33.36,0-2.65,0-3.7-.44-3.67-3.43.17-13.62.08-27.24.09-40.86,0-1.43-.46-3.06,2-3C289.86,513.19,303,513.16,316.58,513.16Z" transform="translate(-10.43 28.93)"/><path class="cls-2" d="M126.23,316.31c0-6.75.16-13.5-.07-20.24-.11-2.93.87-3.51,3.59-3.47q16.31.22,32.62,0c2.56,0,3.4.58,3.36,3.28-.14,12.87-.07,25.74,0,38.61,0,1.79.1,3.57.15,5.36-1.87,0-3.75.06-5.62.06-10.12,0-20.25-.13-30.37.08-3.1.07-3.76-.93-3.68-3.81C126.37,329.56,126.23,322.94,126.23,316.31Z" transform="translate(-10.43 28.93)"/><path class="cls-2" d="M251.17,315.81c0-13,0-26,0-38.95,0-1.93.75-2.24,2.42-2.23q21.74.08,43.46,0c2,0,2.53.54,2.51,2.51-.09,11-.11,22,0,33,0,2.43-.88,2.87-3.05,2.85-13.11-.08-26.23,0-39.34-.08C254.63,312.85,252.49,313.05,251.17,315.81Z" transform="translate(-10.43 28.93)"/><path class="cls-2" d="M466.74,12.47c7,0,14,.07,21-.05,2.13,0,3.1.29,3.07,2.79-.14,11-.12,22,0,33,0,2.29-.89,2.59-2.84,2.58-13.11-.07-26.22,0-39.33,0-.75,0-1.65-.27-2.23,0-5,2.67-3.95-1.07-3.95-3.65,0-10.24.17-20.49-.11-30.72-.1-3.51,1-4.11,4.19-4C453.25,12.64,460,12.47,466.74,12.47Z" transform="translate(-10.43 28.93)"/><path class="cls-2" d="M201.67,125.26c0-5.11.1-10.23,0-15.35-.06-2.2.45-3,2.86-3q15.72.21,31.45,0c2.43,0,2.87.82,2.85,3q-.15,15.52,0,31.07c0,2.33-.42,3.28-3.05,3.24q-15.53-.24-31.07,0c-2.59,0-3.11-.89-3-3.24C201.78,135.75,201.67,130.5,201.67,125.26Z" transform="translate(-10.43 28.93)"/><path class="cls-2" d="M307.42,483.83c0,4.75-.05,9.49,0,14.23,0,1.78-.22,2.75-2.39,2.71-6.73-.13-13.48-.11-20.22,0-2,0-2.21-.83-2.2-2.47.06-9.61.08-19.22,0-28.83,0-2,.6-2.57,2.56-2.53,6.49.11,13,.16,19.47,0,2.5-.07,2.87.94,2.8,3.07C307.33,474.6,307.42,479.22,307.42,483.83Z" transform="translate(-10.43 28.93)"/><path class="cls-2" d="M73.12,459.16c-4.61,0-9.23-.08-13.84,0-2,.05-2.89-.47-2.85-2.69q.2-9.74,0-19.46c0-2.22.79-2.7,2.82-2.68,9.48.09,19,.11,28.43,0,2.29,0,2.62.86,2.59,2.82-.1,6.36-.13,12.72,0,19.08,0,2.29-.63,3-2.94,2.95C82.6,459.05,77.86,459.16,73.12,459.16Z" transform="translate(-10.43 28.93)"/><path class="cls-2" d="M222.26,307.22c-4.86,0-9.73-.1-14.59,0-2.17.07-2.77-.68-2.73-2.77q.17-9.17,0-18.34c0-2,.65-2.55,2.58-2.54q15,.12,29.93,0c2,0,2.55.64,2.51,2.58-.11,6.23-.09,12.47,0,18.7,0,1.8-.57,2.39-2.36,2.35C232.49,307.16,227.38,307.22,222.26,307.22Z" transform="translate(-10.43 28.93)"/><path class="cls-2" d="M413.12,21.47c4.61,0,9.23.09,13.84,0,2.13-.06,3.16.28,3.08,2.79-.18,6.1-.11,12.22,0,18.33,0,1.85-.37,2.69-2.46,2.66q-14.42-.14-28.82,0c-2,0-2.57-.72-2.54-2.62.09-6.12.15-12.23,0-18.34-.06-2.48,1-2.87,3.1-2.81C403.88,21.56,408.5,21.47,413.12,21.47Z" transform="translate(-10.43 28.93)"/><path class="cls-2" d="M221.08,780.91c3.72-1.19,3.84,1.1,4.32,4.68a38.6,38.6,0,0,0,8.78,20.33c5.21,6,10.86,11.67,18.71,14.51,4.09,1.49,8.11,3.19,12.51,3.17,2.24,0,2.86.8,2.59,2.81a14.59,14.59,0,0,0,0,1.87c0,6-.05,6.26-5.87,5.37a58.6,58.6,0,0,1-25-9.88c-9.09-6.33-15.07-15-19.06-24.95a35.22,35.22,0,0,1-2.91-12.65C215.14,780.91,215.15,780.91,221.08,780.91Z" transform="translate(-10.43 28.93)"/><path class="cls-4" d="M237.73,473.58c0,5.36-.19,10.74,0,16.1.1,2.71-.84,3.63-3.39,3.23-3.24-.5-5.41.15-4.63,4.17.35,1.87-.4,2.69-2.45,2.62-4.37-.13-8.74-.12-13.11,0-2.1.07-2.48-.87-2.46-2.69.06-9.12.08-18.23,0-27.34,0-2.14.64-2.82,2.78-2.75,4.23.15,8.48,0,12.73.07,1,0,2.16-.47,2.56,1.29,1.23,5.49,1.31,5.47,6.93,5.44l1.12-.06Z" transform="translate(-10.43 28.93)"/><path class="cls-2" d="M229.73,371.08c0,4.37-.1,8.74.05,13.1.07,2.2-.43,3.15-2.87,3-4.11-.2-8.24-.14-12.35,0-2,.06-3.14-.41-2.84-2.66.45-3.44-1.39-4.52-4.45-4.12-2.53.34-3.58-.45-3.41-3.21a106.22,106.22,0,0,0,0-12c-.12-2.35.64-3.19,2.92-2.84,4.07.62,5.46-1.37,4.95-5.17-.28-2,.44-2.9,2.66-2.81,4.24.16,8.49.18,12.73,0,2.27-.1,2.7.8,2.65,2.81C229.65,361.85,229.73,366.47,229.73,371.08Z" transform="translate(-10.43 28.93)"/><path class="cls-2" d="M71.92,362.41c4.37,0,8.74.1,13.1,0,2.14-.07,3.16.28,3,2.78-.22,4.11-.18,8.24,0,12.36.09,2.29-.63,3.29-2.94,2.9-3.07-.53-4.42.63-3.87,3.8.39,2.22-.43,3.11-2.83,3-4.36-.2-8.74-.18-13.1,0-2.39.09-3.57-.53-3.13-3.1.49-2.8-.43-4.28-3.53-3.71-2.71.51-3.39-.79-3.26-3.33.19-4,.16-8,0-12-.08-2.12.54-2.81,2.7-2.74C62.68,362.52,67.3,362.41,71.92,362.41Z" transform="translate(-10.43 28.93)"/><path class="cls-4" d="M303.76,823.66c9.86,0,19.72.07,29.57,0,2.49,0,3.47.45,3.42,3.21-.14,6.9,0,6.9-6.8,6.9-18.6,0-37.19-.06-55.78.07-2.95,0-4.16-.51-4-3.8.26-6.32.06-6.33,6.28-6.33Z" transform="translate(-10.43 28.93)"/><path class="cls-4" d="M116,453.47c-6.86,0-13.73-.08-20.59,0-2.25,0-3.14-.55-3-2.91.24-3.34-1-7.61.62-9.81,1.77-2.38,6.26-.75,9.55-.79,11.36-.12,22.72,0,34.07-.1,2.49,0,3.29.67,3.1,3.14-.27,3.33,1,7.72-.66,9.74s-6.31.57-9.64.65C125,453.55,120.5,453.47,116,453.47Z" transform="translate(-10.43 28.93)"/><path class="cls-2" d="M263.48,125.52c0,7.86-.08,15.72,0,23.58,0,2.26-.52,2.93-2.88,2.94-9.48,0-9.48.13-9.48-9.41,0-13.48.06-26.95-.06-40.43,0-2.44.64-3.11,3.09-3.1,9.28,0,9.28-.08,9.28,9.2Z" transform="translate(-10.43 28.93)"/><path class="cls-2" d="M229.73,237c0,4.49-.09,9,0,13.46.07,2-.4,2.88-2.63,2.78-4.23-.17-8.48-.11-12.72,0-1.75,0-2.76-.2-2.73-2.37.09-9.35.07-18.7,0-28,0-1.6.53-2.22,2.15-2.2,4.61.07,9.22.09,13.83,0,1.71,0,2.09.63,2.07,2.19C229.68,227.55,229.73,232.29,229.73,237Z" transform="translate(-10.43 28.93)"/><path class="cls-2" d="M229.73,183c0,4.49-.09,9,0,13.46.07,2-.4,2.88-2.63,2.78-4.23-.17-8.48-.11-12.72,0-1.75,0-2.76-.2-2.73-2.38.09-9.34.07-18.69,0-28,0-1.6.53-2.22,2.15-2.2,4.61.07,9.22.09,13.83,0,1.71,0,2.09.64,2.07,2.19C229.68,173.55,229.73,178.29,229.73,183Z" transform="translate(-10.43 28.93)"/><path class="cls-2" d="M419.92,823.17v6.37a8.4,8.4,0,0,1-8.4,8.67c-4.62,0-9.25-.08-13.87,0-2,.06-2.58-.58-2.52-2.54q.19-6.37,0-12.75c-.06-2,.41-3.06,2.66-2.77,3.41.44,4.52-1.42,4.11-4.47-.33-2.51.38-3.56,3.16-3.39,4.11.26,8.24.15,12.36,0,2-.06,2.65.58,2.54,2.56C419.81,817.67,419.92,820.42,419.92,823.17Z" transform="translate(-10.43 28.93)"/><path class="cls-2" d="M411.71,145.22c3.12,0,6.24.06,9.35,0,1.59-.05,2.21.47,2.2,2.11q-.09,9.72,0,19.44c0,1.59-.51,2.21-2.15,2.2q-9.53-.1-19.07,0c-1.74,0-2.42-.5-2.4-2.34q.14-9.53,0-19.07c0-1.78.55-2.41,2.35-2.35C405.22,145.3,408.47,145.22,411.71,145.22Z" transform="translate(-10.43 28.93)"/><path class="cls-4" d="M220.85,201.47c4.36,0,8.73.08,13.09,0,1.94-.06,2.65.51,2.58,2.5-.13,4-.12,8,0,12,.06,2-.64,2.56-2.58,2.54q-13.27-.12-26.57,0c-1.74,0-2.47-.52-2.43-2.34q.15-6.18,0-12.35c0-1.83.68-2.35,2.43-2.32C211.87,201.53,216.36,201.46,220.85,201.47Z" transform="translate(-10.43 28.93)"/><path class="cls-4" d="M220.8,146.41c3.61,0,7.23.07,10.84,0,1.8-.06,2.72.25,2.64,2.38-.16,4.36-.12,8.73,0,13.08,0,1.9-.49,2.64-2.51,2.61q-11-.15-22.06,0c-2,0-2.55-.77-2.51-2.65.1-4.35.11-8.72,0-13.08,0-1.83.64-2.39,2.4-2.34C213.32,146.47,217.06,146.41,220.8,146.41Z" transform="translate(-10.43 28.93)"/><path class="cls-2" d="M416.48,730.5c0,6.73-.07,13.47,0,20.2,0,2.27-.31,3.31-3,3.29-7.1-.07-7.1.08-7.1-7,0-11.72.1-23.45-.07-35.17-.05-3.09.42-4.4,4-4.2,6.15.35,6.16.09,6.16,6.42Z" transform="translate(-10.43 28.93)"/><path class="cls-2" d="M406.42,620c0-6.62.07-13.23,0-19.84,0-2.07.5-2.76,2.69-2.79,7.41-.1,7.41-.2,7.41,7,0,11.6-.08,23.21.06,34.81,0,2.58-.59,3.38-3.26,3.32-6.86-.14-6.86,0-6.86-6.79Z" transform="translate(-10.43 28.93)"/><path class="cls-2" d="M478.86,477.16c6.11,0,12.22.06,18.33,0,1.87,0,2.55.4,2.6,2.44.2,7.66.29,7.66-7.45,7.66-10.23,0-20.46-.09-30.68.06-2.69,0-3.66-.48-3.57-3.42.2-6.69,0-6.7,6.56-6.7Z" transform="translate(-10.43 28.93)"/><path class="cls-4" d="M409.15,484.48c1.5-1,2.47-1.47,4.42.13,5.14,4.24,7.15,9.15,6.48,15.81-.6,5.95-.13,6-6.27,6-2.74,0-5.49-.08-8.22,0-1.91.08-2.7-.52-2.62-2.53.13-3.61.14-7.23,0-10.84-.07-1.58.71-2.49,1.64-3.52,1.54-1.7,3.67-2.88,4.62-5.12Z" transform="translate(-10.43 28.93)"/><path class="cls-4" d="M409.19,484.44c-2.05-1.3-2.69.89-3.26,1.74-4.51,6.77-11.36,4-17.39,4.43-1.37.11-1.32-1.2-1.32-2.21,0-4.13.06-8.25,0-12.37,0-1.8.62-2.4,2.4-2.35,3.75.11,7.5-.06,11.24.06s9.2,7.24,8.31,10.74Z" transform="translate(-10.43 28.93)"/><path class="cls-5" d="M435.67,482.17c0,8.49-.05,7.91-8.49,8.67-7.06.64-9.43-4.86-13.55-8.2a1.37,1.37,0,0,1-.28-1.7c1-2.62,7.89-7.22,10.82-7.22s6,.09,9,0c1.92-.09,2.72.49,2.57,2.51S435.68,480.18,435.67,482.17Z" transform="translate(-10.43 28.93)"/><path class="cls-6" d="M439.51,428.71c7.87,0,15.73.09,23.6-.06,2.31,0,3,.62,3,2.93s-.82,2.9-3.05,2.89q-24-.12-47.95,0c-2,0-3.19-.2-3.21-2.76s.94-3.08,3.29-3C423.27,428.79,431.39,428.71,439.51,428.71Z" transform="translate(-10.43 28.93)"/><path class="cls-6" d="M383.59,428.71c7.74,0,15.48.08,23.21,0,2.24,0,3.06.47,3,2.86s-.69,3-3,3q-23.58-.14-47.18,0c-2.52,0-2.79-1-2.82-3.1s.69-2.74,2.79-2.71C367.61,428.77,375.6,428.71,383.59,428.71Z" transform="translate(-10.43 28.93)"/><path class="cls-4" d="M411.5,458c8.42,0,7.79.07,8.62,8.17.71,7.05-4.53,9.62-8,13.7-.5.59-1,.62-1.44-.06a2.79,2.79,0,0,0-.79-.78c-7.17-4.52-7.66-11.46-7-18.89.14-1.57.6-2.23,2.21-2.16C407.26,458,409.38,458,411.5,458Z" transform="translate(-10.43 28.93)"/><path class="cls-4" d="M439.11,229.66c8,0,16,.07,23.95,0,2.18,0,3,.39,3,2.82s-.77,2.86-3,2.84q-24.15-.14-48.28,0c-2.41,0-2.88-.82-2.9-3s.91-2.66,2.88-2.64C422.89,229.7,431,229.66,439.11,229.66Z" transform="translate(-10.43 28.93)"/><path class="cls-4" d="M383.23,229.66c7.86,0,15.72.07,23.58,0,2.18,0,3,.39,3,2.82s-.78,2.86-3,2.84q-23.58-.14-47.15,0c-2.49,0-2.79-.91-2.83-3s.8-2.66,2.81-2.63C367.51,229.72,375.37,229.66,383.23,229.66Z" transform="translate(-10.43 28.93)"/><path class="cls-6" d="M438.85,209.42c-7.86,0-15.73,0-23.59,0-1.53,0-3.28.55-3.36-2.16s1.42-2.38,3.1-2.37q24.15,0,48.3,0c1.69,0,2.79.07,2.77,2.31s-1.25,2.27-2.88,2.26C455.07,209.41,447,209.42,438.85,209.42Z" transform="translate(-10.43 28.93)"/><path class="cls-3" d="M438.88,442.23h-24c-1.47,0-3,.35-3-2.1s1.33-2.44,3.09-2.44q24.17,0,48.32,0c1.76,0,2.74.18,2.76,2.36,0,2.35-1.26,2.21-2.84,2.2C455.11,442.21,447,442.23,438.88,442.23Z" transform="translate(-10.43 28.93)"/><path class="cls-6" d="M439.51,411.9H463.1c1.47,0,2.95-.39,3,2.08s-1.27,2.47-3.06,2.46q-24,0-47.93,0c-1.67,0-3.18.23-3.19-2.35,0-2.78,1.78-2.17,3.29-2.17C423.29,411.88,431.4,411.9,439.51,411.9Z" transform="translate(-10.43 28.93)"/><path class="cls-6" d="M439.08,425.42h-24c-1.64,0-3.19.29-3.22-2.32s1.72-2.2,3.25-2.21h47.93c1.43,0,3-.46,3,2s-1.2,2.52-3,2.51C455.06,425.39,447.07,425.42,439.08,425.42Z" transform="translate(-10.43 28.93)"/><path class="cls-3" d="M439.11,221.71c8,0,16,0,24,0,1.86,0,3,.09,3,2.51s-1.57,2-3,2H415.13c-1.58,0-3.25.45-3.23-2.25s1.62-2.27,3.24-2.27Z" transform="translate(-10.43 28.93)"/><path class="cls-3" d="M439.11,212.71c8,0,16,0,24,0,1.85,0,3,.1,3,2.51s-1.57,2-3,2H415.13c-1.58,0-3.25.44-3.23-2.25s1.63-2.27,3.24-2.27Z" transform="translate(-10.43 28.93)"/><path class="cls-7" d="M383.24,217.23c-7.87,0-15.73,0-23.59,0-1.63,0-2.83,0-2.81-2.25s1.14-2.3,2.81-2.3q23.78.06,47.56,0c1.93,0,2.58.54,2.6,2.52s-1.12,2.06-2.6,2.05C399.22,217.21,391.23,217.23,383.24,217.23Z" transform="translate(-10.43 28.93)"/><path class="cls-6" d="M383.65,420.9h23.2c1.47,0,2.95-.4,3,2.08s-1.26,2.47-3.06,2.47q-23.38-.06-46.78,0c-1.68,0-3.14.23-3.15-2.36,0-2.79,1.74-2.16,3.24-2.16C367.93,420.88,375.79,420.9,383.65,420.9Z" transform="translate(-10.43 28.93)"/><path class="cls-7" d="M383.24,437.71c7.86,0,15.73,0,23.59,0,1.85,0,3,.08,3,2.5s-1.56,2-3,2q-23.59,0-47.18,0c-1.63,0-2.83.06-2.81-2.25s1.13-2.31,2.81-2.3C367.51,437.74,375.37,437.71,383.24,437.71Z" transform="translate(-10.43 28.93)"/><path class="cls-6" d="M383.23,416.42c-7.86,0-15.72,0-23.58,0-1.68,0-2.79-.08-2.82-2.32s1.21-2.24,2.81-2.24q23.78,0,47.54,0c1.47,0,2.64-.08,2.63,2.05s-.7,2.55-2.62,2.53C399.2,416.37,391.22,416.42,383.23,416.42Z" transform="translate(-10.43 28.93)"/><path class="cls-7" d="M383.06,226.23H359.84c-1.42,0-3,.49-3-2s1.17-2.5,3-2.49q23.6.06,47.19,0c1.69,0,2.78.07,2.8,2.31s-1.16,2.26-2.79,2.25C399,226.2,391.05,226.23,383.06,226.23Z" transform="translate(-10.43 28.93)"/><path class="cls-6" d="M383.3,204.9h23.58c1.49,0,2.92-.33,2.94,2.11s-1.32,2.45-3.08,2.44q-23.4,0-46.79,0c-1.71,0-3.11.16-3.12-2.4,0-2.81,1.79-2.12,3.26-2.13C367.83,204.88,375.56,204.9,383.3,204.9Z" transform="translate(-10.43 28.93)"/><path class="cls-6" d="M411.64,176.71c8.3,0,8.14,0,8.37,8.36.09,3.2-.58,4.51-4.05,4.18a78,78,0,0,0-10.48,0c-2,.08-2.75-.7-2.52-2.62a10.46,10.46,0,0,0,0-1.12C402.93,176.71,402.93,176.71,411.64,176.71Z" transform="translate(-10.43 28.93)"/><path class="cls-6" d="M411.69,125c8.25,0,8.08,0,8.33,8.41.09,3.29-.73,4.46-4.11,4.12a47.12,47.12,0,0,0-9.35,0c-3.18.31-3.7-1-3.65-3.82C403,125,402.94,125,411.69,125Z" transform="translate(-10.43 28.93)"/><path class="cls-5" d="M405.23,770.07c0-.37-.13-.81,0-1.11,1-1.94-2.36-5.62,2.32-6,2.38-.21,4.39-1.22,7.26-.64,4.44.9,3.95,3.18,3.91,6a46.36,46.36,0,0,0,.05,6.35c.26,2.07-.9,2.91-2.41,3.45-3,1.08-6.14.61-9.18.31-1.32-.13-2.09-1.54-2-3.15S405.22,771.82,405.23,770.07Z" transform="translate(-10.43 28.93)"/><path class="cls-5" d="M409.73,5.51c0-.86-.06-1.36,0-1.85.29-2.23-1.17-5.44,1.45-6.41a11.68,11.68,0,0,1,9.61.49A2.27,2.27,0,0,1,422.18.29c0,2.61.16,5.23-.07,7.82-.13,1.46,1.23,3.46-1.26,4.36-3.66,1.32-7.58,2.39-10.64-.48C408.64,10.52,410,7.47,409.73,5.51Z" transform="translate(-10.43 28.93)"/><path class="cls-5" d="M266.8,483.92c-7.91,0-7.79,0-7.88-8,0-3.44,1.3-4.76,4.62-4.44,1.23.13,2.61-.32,3.7.09,2.45.94,6.56-2.58,7.37,2.28.44,2.63,2.17,5.26.29,8.31-.77,1.25-1.14,1.85-2.52,1.81C270.52,483.88,268.66,483.92,266.8,483.92Z" transform="translate(-10.43 28.93)"/><path class="cls-4" d="M226.39,539c.45,9,.17,9.07-8.95,9-2.78,0-4.95-1-4.57-4.55.24-2.21-.11-4.48.1-6.7.15-1.51-1.15-3.66,1.21-4.42,4-1.28,8.34-2.46,11.78.53C227.5,534.13,226.22,537.3,226.39,539Z" transform="translate(-10.43 28.93)"/><path class="cls-3" d="M119.53,373.67c-7.87,0-7.67,0-8-8-.12-3.55.71-4.95,4.44-4.5a44,44,0,0,0,8.59,0c2.42-.18,3.16.78,2.84,3a10.72,10.72,0,0,0,0,1.5C127.43,373.67,127.43,373.67,119.53,373.67Z" transform="translate(-10.43 28.93)"/><path class="cls-5" d="M67.72,418.11a9.61,9.61,0,0,1,0-1.86c.38-1.81-1.24-4.62,1-5.32,3.47-1.07,7.28-1.91,10.86,0,.37.2.53,1.08.53,1.65,0,3.6,0,7.2,0,10.8,0,.37.09.83-.09,1.1-2.48,3.88-6.32,1.44-9.52,1.89-2.12.3-2.89-1.41-2.85-3.42C67.75,421.34,67.72,419.73,67.72,418.11Z" transform="translate(-10.43 28.93)"/><path class="cls-5" d="M218.48,267c0-8.42,1.48-9.63,9.88-8.12a2.75,2.75,0,0,1,2.57,3c0,3.5-.06,7,0,10.49,0,1.58-.5,2.51-2.12,2.18-2-.41-3.61,1.05-5.94.76-5-.63-4.57-3.55-4.42-6.86C218.49,268,218.48,267.53,218.48,267Z" transform="translate(-10.43 28.93)"/><path class="cls-7" d="M359.92,822.46a3.13,3.13,0,0,1,.75,0c2.06.49,5.23-1.38,6.05.95,1.18,3.35,3,8-.06,10.57s-7.84.46-11.83.94c-1.58.19-3.08-.47-3.32-1.75-.57-3-1-6.33.16-9.17s4.18-1.24,6.39-1.53A12.82,12.82,0,0,1,359.92,822.46Z" transform="translate(-10.43 28.93)"/><path class="cls-4" d="M324.16,482.72c-7.74,0-7.47,0-7.85-7.68-.2-4.08,1.2-5.25,4.91-4.65.73.12,1.49,0,2.24,0,2.8.23,7.1-1.3,8.09.63,1.43,2.77.53,6.74.62,10.2,0,1.48-1,1.48-2,1.47Z" transform="translate(-10.43 28.93)"/><path class="cls-4" d="M410.92,62.61v-.38c-.11-9.27-.85-8,9.52-8.06a2.53,2.53,0,0,1,2.78,2.8c0,3.62,0,7.24,0,10.86,0,1.67-.69,2.22-2.25,2.1-.86-.08-1.74,0-2.62,0C410.92,69.91,410.92,69.91,410.92,62.61Z" transform="translate(-10.43 28.93)"/><path class="cls-4" d="M232,324c0,8,0,7.72-7.82,8.09-4,.19-5-1.09-4.55-4.73a55.71,55.71,0,0,0,0-7.86c0-1.75.68-3.08,2.37-3.21,2.86-.22,5.74-.07,8.61,0,1.52,0,1.33,1.18,1.35,2.14C232,320.24,232,322.12,232,324Z" transform="translate(-10.43 28.93)"/><path class="cls-5" d="M220.74,408v3c0,4.43-3.26,6.47-7.51,5.16-3.24-1-4.24-2.81-3.81-6a22.08,22.08,0,0,0,0-6.34c-.45-2.9,1.55-3.74,3.45-4.24a16.06,16.06,0,0,1,5.58-.06c1.54.16,2.3,1.31,2.3,2.89C220.73,404.29,220.73,406.17,220.74,408Z" transform="translate(-10.43 28.93)"/><path class="cls-5" d="M209.48,444.1v-1.65c0-6.82,2.52-8.75,9.08-6.94a2.8,2.8,0,0,1,2.18,3c0,2.62,0,5.23,0,7.84,0,5.26-2.91,6.59-8.07,5.38C206.7,450.37,210.92,446.09,209.48,444.1Z" transform="translate(-10.43 28.93)"/><path class="cls-4" d="M410.92,578.15V580c0,6-2.62,8-8.34,6-1.62-.55-3.33-1.25-3-3.86a48.19,48.19,0,0,0,.06-8.58c-.21-4.37,2.86-4.17,5.68-4.17s5.9-.09,5.62,4.22C410.84,575.15,410.92,576.65,410.92,578.15Z" transform="translate(-10.43 28.93)"/><path class="cls-5" d="M83.48,475.66c0,.37,0,.74,0,1.11.34,8.25-.38,7.15-8.53,7.1-1.88,0-2.76-1.37-2.74-3.26,0-2.11-.14-4.23,0-6.32s-1.19-5,.79-5.82c2.91-1.17,6.34-2.08,9.61-.25.87.49.8,1.14.81,1.85C83.5,471.93,83.48,473.79,83.48,475.66Z" transform="translate(-10.43 28.93)"/><path class="cls-5" d="M234.23,444v3c0,4.17-3.68,6.3-7.73,5-3-.94-4-2.32-3.59-5.39a22.93,22.93,0,0,0,0-6.72c-.43-2.86,1.45-3.79,3.4-4.28a16.56,16.56,0,0,1,5.58-.08,2.55,2.55,0,0,1,2.34,2.86C234.24,440.25,234.23,442.12,234.23,444Z" transform="translate(-10.43 28.93)"/><path class="cls-4" d="M424.42,577.83v2.23c0,5.5-1,6.48-6.7,6.15-2.81-.16-5-1-4.59-4.55a60.68,60.68,0,0,0,0-6.33c0-5.25,3.59-7.61,8.66-5.6,1.55.62,3.14,1.29,2.65,3.64A22.1,22.1,0,0,0,424.42,577.83Z" transform="translate(-10.43 28.93)"/><path class="cls-5" d="M176.34,360.16h1.11c8.18-.19,7.23-.16,7.29,8,0,2.14-1,3.21-3.18,3.22-2.74,0-5.5.14-8.22-.06-1.49-.12-3.35,1.09-4.43-1.38-1.45-3.32-1.33-6.8.63-9.26C170.92,359,174.26,360.46,176.34,360.16Z" transform="translate(-10.43 28.93)"/><path class="cls-5" d="M234.24,408.32c0,.87,0,1.74,0,2.61,0,4.57-3.32,6.21-7.93,4.93-3.21-.89-3.54-2.48-3.36-5.12.16-2.23,0-4.47,0-6.71,0-3.7,1.12-4.58,5.73-4.57,4.41,0,5.49.86,5.52,4.38C234.25,405.33,234.24,406.83,234.24,408.32Z" transform="translate(-10.43 28.93)"/><path class="cls-3" d="M248.93,125.62c0,2.12.1,4.24,0,6.35-.09,1.38.87,3.5-.76,4-1.93.59-4.19.28-6.28.1-1.18-.1-.86-1.34-.87-2.15,0-5.48.06-11,0-16.44,0-1.9.49-2.58,2.5-2.63,5.49-.15,5.49-.26,5.49,5.16Z" transform="translate(-10.43 28.93)"/><path class="cls-6" d="M324.16,495.17h-.75c-7.5,0-8.15-.87-7.05-8.54.24-1.63,1.05-1.69,2.26-1.68a70.76,70.76,0,0,0,9-.06c3.81-.45,4.92.81,4.67,4.64-.36,5.62-.09,5.64-5.87,5.64Z" transform="translate(-10.43 28.93)"/><path class="cls-3" d="M408.68,61.87v2.62c0,5.43,0,5.44-5.27,5.42-5.62,0-4.9.65-4.94-5,0-2.37,0-4.75,0-7.12s1-3.56,3.55-3.66C408.68,53.87,408.68,53.8,408.68,61.87Z" transform="translate(-10.43 28.93)"/><path class="cls-4" d="M59.92,476a18.54,18.54,0,0,1,0-3.73c.29-1.36-1.16-3.07,1.17-4.13,3-1.4,5.78-.76,8.52.49.35.16.3,1.38.31,2.11,0,3.11-.08,6.23,0,9.34.11,2.92-1.22,3.91-4,3.91C59.92,484,59.92,484.05,59.92,476Z" transform="translate(-10.43 28.93)"/><path class="cls-4" d="M177,383.72a32.53,32.53,0,0,0-4.84,0c-3.09.49-3.84-1.58-4.23-3.78a5.15,5.15,0,0,1,5.37-6.32c2.61,0,5.22.06,7.83,0s3.54,1,3.61,3.53C185,383.72,185,383.72,177,383.72Z" transform="translate(-10.43 28.93)"/><path class="cls-7" d="M398.47,5.17V1.8c0-4.72.46-5,5-5.13,2.88,0,4.11,1.05,4,3.94s-.1,6,0,9c.13,3.75-2.48,3.89-5.12,4.08-2.87.2-4.09-1.19-3.93-4C398.54,8.16,398.47,6.66,398.47,5.17Z" transform="translate(-10.43 28.93)"/><path class="cls-3" d="M267,495.17h-3c-5.09,0-4.95,0-5-5-.05-3.14,1.29-4.24,4.27-4.08,2.49.14,5-.09,7.48.08,1.34.09,3.43-1,3.91.91.53,2.14,2.57,4.29.3,6.83a2.74,2.74,0,0,1-2.32,1.23Z" transform="translate(-10.43 28.93)"/><path class="cls-7" d="M216.24,267.29v3.37c0,4.42-3.54,6.26-7.58,4.13a2.16,2.16,0,0,1-1.45-2.21c0-3.5,0-7,0-10.48s2.36-3.19,4.69-3.22,4.36.08,4.33,3.17C216.22,263.8,216.24,265.55,216.24,267.29Z" transform="translate(-10.43 28.93)"/><path class="cls-5" d="M208.42,324a20.91,20.91,0,0,0,0-3.36c-.58-3.54.68-4.52,4.35-4.58,4.07-.08,5.25,1.24,4.72,5a35.8,35.8,0,0,0,0,4.86c0,6.28-1.28,7.26-7.54,6.11-1.42-.25-1.48-1-1.48-2C208.43,328,208.42,326,208.42,324Z" transform="translate(-10.43 28.93)"/><path class="cls-7" d="M119.51,375.9h3c4.93,0,4.72,0,5,4.93.18,3.2-.59,4.53-4,4.15a52.56,52.56,0,0,0-9,0c-2.37.16-2.9-.76-2.9-3C111.63,375.9,111.52,375.9,119.51,375.9Z" transform="translate(-10.43 28.93)"/><path class="cls-3" d="M198.24,371.3c0,2.24,0,4.48,0,6.73a3.94,3.94,0,0,1-6,3.33c-.85-.45-.78-1.18-.78-1.9,0-5.36.05-10.72,0-16.08-.05-3.07,2.15-2,3.66-2.14s3.35-.49,3.18,2.2S198.24,368.68,198.24,371.3Z" transform="translate(-10.43 28.93)"/><path class="cls-3" d="M71.63,393.9a40.84,40.84,0,0,0,6,0c3.38-.5,3.93,1.08,3.72,4-.14,1.9-.3,3-2.63,2.9-4.73-.17-9.46-.16-14.19,0-3.35.1-2.12-2.27-2.31-3.87s-.19-3.21,2.36-3C66.88,394.06,69.26,393.9,71.63,393.9Z" transform="translate(-10.43 28.93)"/><path class="cls-5" d="M388.42,829a49.61,49.61,0,0,0,0,5.59c.34,2.89-.58,3.86-3.62,3.79-2.68-.06-3.35-.83-3.23-3.4.21-4.47.22-9,0-13.44-.14-3,1.79-2.34,3.4-2.33s3.69-.72,3.45,2.32C388.27,824,388.42,826.47,388.42,829Z" transform="translate(-10.43 28.93)"/><path class="cls-8" d="M100.44,371.56c0,2.11,0,4.22,0,6.33s.28,3.72-2.89,3.73-2.9-1.73-2.88-3.77c0-4.72.12-9.44,0-14.16-.08-2.37,1.1-2.53,3-2.55s3,.26,2.88,2.6C100.29,366.33,100.44,369,100.44,371.56Z" transform="translate(-10.43 28.93)"/><path class="cls-8" d="M48.69,371.64c0,2.36-.16,4.73.05,7.07s-.83,2.88-3,2.85c-2,0-2.9-.45-2.84-2.68.15-5,.17-9.93,0-14.89-.08-2.42.9-2.8,3-2.88,2.5-.09,2.91,1,2.79,3.08C48.58,366.67,48.69,369.15,48.69,371.64Z" transform="translate(-10.43 28.93)"/><path class="cls-4" d="M57.67,418.69a45.42,45.42,0,0,0,0-5.22c-.34-3,1.87-3.68,3.81-3.68s4.35.57,4.1,3.8a82.78,82.78,0,0,0,0,9.32c.13,3.87-2.5,3.39-5,3.63-2.93.27-2.91-1.34-2.8-3.37C57.73,421.68,57.67,420.18,57.67,418.69Z" transform="translate(-10.43 28.93)"/><path class="cls-9" d="M411.37,117.2c-4,0-8,0-12,0-1.35,0-3.26.67-3.21-1.84,0-2.28,1.8-1.63,3-1.63q12.35-.06,24.69,0c1.28,0,2.92-.49,2.82,1.81s-1.77,1.66-3,1.67C419.6,117.24,415.49,117.2,411.37,117.2Z" transform="translate(-10.43 28.93)"/><path class="cls-9" d="M411.37,196.93c4.24,0,8.48,0,12.72,0,1.18,0,2.6-.4,2.65,1.64s-1.14,1.88-2.46,1.88q-12.91,0-25.82,0c-1.23,0-2.24-.1-2.29-1.7-.07-1.89,1.16-1.85,2.48-1.84C402.89,197,407.13,196.93,411.37,196.93Z" transform="translate(-10.43 28.93)"/><path class="cls-10" d="M411.73,800c2,0,4,.08,6,0s3.41,0,3.4,2.86-1.24,3-3.39,2.92c-4.48-.1-9-.15-13.46,0-2.58.09-2.33-1.43-2.39-3.11s.19-2.85,2.38-2.7C406.73,800.09,409.23,800,411.73,800Z" transform="translate(-10.43 28.93)"/><path class="cls-11" d="M440.19,32.58v1.5c0,5.75,0,5.67-5.61,5.45-1.75-.07-2.49-.53-2.4-2.35a37.92,37.92,0,0,0,0-6.74c-.44-3.52.62-5,4.39-4.56C440.16,26.25,440.19,26,440.19,32.58Z" transform="translate(-10.43 28.93)"/><path class="cls-12" d="M294.54,503h2.26c4.68,0,6.37,2.36,4.95,6.79-.36,1.12-1.09,1.19-2,1.18a54.22,54.22,0,0,0-7.1.05c-3.61.45-4.52-.84-4.56-4.45C288,500.15,292.73,504.22,294.54,503Z" transform="translate(-10.43 28.93)"/><path class="cls-12" d="M220.52,429.93a15.21,15.21,0,0,0-2.24,0c-3.28.5-4.59-.52-4.45-4.16.12-3.07.88-4.25,4-3.87a23.31,23.31,0,0,0,5.6,0c3.15-.4,4.32.47,4.23,4-.08,3.22-.75,4.67-4.14,4.07A17.42,17.42,0,0,0,220.52,429.93Z" transform="translate(-10.43 28.93)"/><path class="cls-4" d="M220.88,506.41c2.24,0,4.49,0,6.73,0,2-.06,3.45-.14,3.44,2.81s-1.48,2.81-3.47,2.79c-4.86-.06-9.72-.15-14.57,0-2.58.09-2.29-1.38-2.38-3-.1-1.84.31-2.75,2.41-2.62C215.64,506.54,218.27,506.41,220.88,506.41Z" transform="translate(-10.43 28.93)"/><path class="cls-4" d="M220.51,347.72c-2.36,0-4.75-.17-7.09,0-2.5.24-2.79-.89-2.83-3s.76-2.7,2.79-2.65c5,.13,10,.15,14.94,0,2.23-.07,2.69.78,2.67,2.81s-.34,3-2.64,2.85C225.75,347.58,223.13,347.72,220.51,347.72Z" transform="translate(-10.43 28.93)"/><path class="cls-4" d="M220.87,460.22c-2.49,0-5-.18-7.46,0s-2.77-.92-2.82-3,.79-2.68,2.81-2.63c5,.13,10,.15,14.94,0,2.24-.07,2.66.81,2.65,2.82s-.37,3-2.65,2.83C225.86,460.08,223.36,460.22,220.87,460.22Z" transform="translate(-10.43 28.93)"/><path class="cls-5" d="M250,483.39c0,2.11-.06,4.23,0,6.34.07,1.9.1,3.29-2.61,3.28s-3.11-.94-3-3.27c.16-4.48.16-9,0-13.44-.09-2.27.84-2.65,2.83-2.65s3,.39,2.83,2.64S250,481,250,483.39Z" transform="translate(-10.43 28.93)"/><path class="cls-4" d="M147.67,350H145.8c-4.58,0-6.31-2.47-4.89-6.8.41-1.25,1.26-1,2.06-1a64.25,64.25,0,0,0,7.08-.07c3.61-.47,4.83.76,4.44,4.42C154,350.67,155.34,349.89,147.67,350Z" transform="translate(-10.43 28.93)"/><path class="cls-13" d="M144.29,446.63c0,6.36.05,12.71,0,19.07,0,1.18.88,3.35-1,3.37-2.32,0-1.24-2.31-1.25-3.55q-.14-18.9,0-37.78c0-1.21-.81-3.32,1.09-3.41,2.11-.1,1.17,2.08,1.19,3.22C144.34,433.91,144.29,440.27,144.29,446.63Z" transform="translate(-10.43 28.93)"/><path class="cls-10" d="M204.57,532.27c1,.21,1.5-.84,2.3-1,2.28-.44,4.15-.51,3.88,2.9-.29,3.6-.06,7.24-.07,10.87,0,1.44.44,3.07-2.06,3-2.22-.08-3.57-.78-3.66-3.17-.16-4.22.37-8.46-.29-12.67Z" transform="translate(-10.43 28.93)"/><path class="cls-6" d="M248.93,294.76v3c0,3.71-2,5-5.62,3.91-1.43-.44-1.12-1.45-1.14-2.38,0-2.49.17-5-.06-7.47-.25-2.81.5-3.9,3.58-3.78,2.6.11,3.63.76,3.27,3.37A23.53,23.53,0,0,0,248.93,294.76Z" transform="translate(-10.43 28.93)"/><path class="cls-5" d="M359.3,820.22c-1.61,0-3.24-.1-4.84,0-2.21.18-3.36-.22-3.34-2.93s1.19-2.76,3.19-2.7c3.35.11,6.71.07,10.06,0,2.08,0,3.86.4,3.77,2.91-.07,2.2-1.65,2.77-3.63,2.69C362.78,820.17,361,820.22,359.3,820.22Z" transform="translate(-10.43 28.93)"/><path class="cls-5" d="M359.26,842.72a46.28,46.28,0,0,0-4.86,0c-2.37.24-3.26-.45-3.27-3,0-2.74,1.44-2.63,3.3-2.59a90,90,0,0,0,9.72,0,3.3,3.3,0,0,1,3.84,3.35c.12,2.13-2,2.38-3.87,2.3C362.5,842.66,360.88,842.72,359.26,842.72Z" transform="translate(-10.43 28.93)"/><path class="cls-10" d="M338.91,828.5a19.08,19.08,0,0,1,0-2.62c.15-1.14-.73-2.87.84-3.26a16.49,16.49,0,0,1,5.2,0c.68.06.72.9.72,1.54,0,3,0,6,0,9-.06,2.84-2.3,1.61-3.65,1.72s-3.23.68-3.12-1.87C339,831.5,338.91,830,338.91,828.5Z" transform="translate(-10.43 28.93)"/><path class="cls-4" d="M234.24,539.48c0,1.74,0,3.48,0,5.22s-.66,3.21-2.71,3.25-2.87-1.15-2.86-3.08c0-3.49,0-7,0-10.46,0-1.92.74-3.17,2.73-3.23s2.86,1.15,2.86,3.07C234.23,536,234.24,537.74,234.24,539.48Z" transform="translate(-10.43 28.93)"/><path class="cls-7" d="M403,770.72c0,1.61-.08,3.23,0,4.84.12,2,0,3.2-2.67,3.21s-3.06-1.08-3-3.32c.14-3.47.06-7,0-10.43,0-1.88.72-3.2,2.67-3.28,2.23-.09,3,1.37,2.93,3.39C403,767,403,768.85,403,770.72Z" transform="translate(-10.43 28.93)"/><path class="cls-14" d="M421,770.1c0-2,0-4,0-6,0-1.06-.29-2.34,1.46-2.45s2.91.77,3,2.18c.21,4.46.12,8.94.09,13.42,0,1.72-1.38,1.36-2.45,1.42-1.34.07-2.13-.38-2.09-1.89C421,774.57,421,772.34,421,770.1Z" transform="translate(-10.43 28.93)"/><path class="cls-15" d="M411,796.72c-2,0-4,0-6,0-1.31,0-2.17-.33-2.13-1.86,0-1.29.66-1.72,1.88-1.71,4.49,0,9,0,13.47,0,1.28,0,1.74.56,1.73,1.81s-.66,1.75-1.85,1.74C415.77,796.7,413.4,796.71,411,796.72Z" transform="translate(-10.43 28.93)"/><path class="cls-5" d="M220.67,397.22c-2.74,0-5.49,0-8.23,0-1.23,0-1.78-.37-1.8-1.7s.71-1.64,1.85-1.63c5.48,0,11,0,16.45,0,1,0,2,0,2,1.48s-.75,1.87-2.07,1.85C226.15,397.19,223.41,397.22,220.67,397.22Z" transform="translate(-10.43 28.93)"/><path class="cls-16" d="M219.67,524.38c1.37,0,2.75.07,4.12,0,1.73-.1,2.8.15,2.72,2.36-.07,1.94-.93,2.27-2.55,2.23q-4.31-.12-8.61,0c-1.66,0-2.51-.34-2.51-2.26s.53-2.49,2.34-2.34C216.67,524.48,218.17,524.38,219.67,524.38Z" transform="translate(-10.43 28.93)"/><path class="cls-17" d="M419.27,524.47c-1.75,0-3.49,0-5.24,0-1.32,0-2.16-.34-2.13-1.87,0-1.3.68-1.71,1.89-1.7,3.75,0,7.49,0,11.23,0,1.29,0,1.74.58,1.72,1.82s-.67,1.74-1.86,1.73C423,524.45,421.14,524.47,419.27,524.47Z" transform="translate(-10.43 28.93)"/><path class="cls-3" d="M411.38,122.72c-2.24,0-4.49,0-6.73,0-1.33,0-1.7-.66-1.7-1.85s.71-1.47,1.68-1.47h13.84c1.07,0,1.5.54,1.48,1.64s-.35,1.67-1.47,1.67Z" transform="translate(-10.43 28.93)"/><path class="cls-3" d="M411.73,194.72c-2.37,0-4.74,0-7.11,0-1.35,0-1.67-.7-1.67-1.88s.76-1.44,1.71-1.44h13.46c1.14,0,1.86.28,1.84,1.67s-.72,1.67-1.88,1.66C416,194.71,413.85,194.72,411.73,194.72Z" transform="translate(-10.43 28.93)"/><path class="cls-11" d="M354.66,481.43c0-1.12.07-2.25,0-3.37-.13-1.63.54-2.14,2.16-2.16s2.52.45,2.42,2.32a56.13,56.13,0,0,0,0,6.74c.11,1.86-.66,2.29-2.39,2.33-2,0-2.31-.86-2.19-2.48C354.72,483.69,354.66,482.56,354.66,481.43Z" transform="translate(-10.43 28.93)"/><path class="cls-11" d="M412.16,532.23c-1.25,0-2.5-.08-3.74,0-1.74.15-2.08-.72-2.05-2.23s.15-2.43,2-2.34a65.88,65.88,0,0,0,6.74,0c1.87-.11,2.68.37,2.67,2.46s-1.08,2.18-2.6,2.1C414.16,532.19,413.16,532.23,412.16,532.23Z" transform="translate(-10.43 28.93)"/><path class="cls-18" d="M361.4,482.28c0-1.12.08-2.25,0-3.37-.14-1.62.78-1.84,2.07-1.79s2.56-.18,2.5,1.8c-.09,2.49-.09,5,0,7.48.07,1.76-.84,2.05-2.31,2.07s-2.39-.34-2.27-2.07C361.48,485,361.4,483.65,361.4,482.28Z" transform="translate(-10.43 28.93)"/><path class="cls-14" d="M410.82,96.94c-1.24,0-2.49,0-3.74,0-1.85.08-1.86-1.12-1.9-2.47s.29-2.14,1.82-2.11c2.24,0,4.49,0,6.73,0,1.59,0,2.88-.13,2.85,2.21,0,2.14-1,2.52-2.77,2.37C412.82,96.87,411.82,96.94,410.82,96.94Z" transform="translate(-10.43 28.93)"/><path class="cls-18" d="M411.56,534.45c1.46.92,5.22-2.1,5,2.77-.15,2.93-2.45,1.91-3.56,1.65-2.58-.59-6.07,2.17-7.69-1.71-.62-1.5,0-3,2.25-2.73C408.76,534.55,410,534.45,411.56,534.45Z" transform="translate(-10.43 28.93)"/><path class="cls-14" d="M410.82,99.13a35.69,35.69,0,0,0,3.73,0c1.82-.16,2,.87,2,2.29s-.29,2.39-2.05,2.31a65.68,65.68,0,0,0-6.73,0c-2,.12-2.61-.6-2.62-2.56,0-2.14,1.25-2.06,2.68-2C408.82,99.15,409.82,99.13,410.82,99.13Z" transform="translate(-10.43 28.93)"/><path class="cls-15" d="M402.88,520.93c1.62,0,3.24.05,4.85,0,1.33,0,2.14.27,2.08,1.83-.05,1.26-.62,1.74-1.84,1.73-3.36,0-6.71,0-10.07,0-1.26,0-1.76-.64-1.74-1.86s.66-1.73,1.88-1.69C399.65,521,401.27,520.93,402.88,520.93Z" transform="translate(-10.43 28.93)"/><path class="cls-4" d="M221.12,338.72h-6c-1.12,0-2.23.16-2.27-1.59s.9-1.74,2.12-1.73c4.22,0,8.45,0,12.67,0,1.29,0,2.12.18,2.08,1.79,0,1.77-1.2,1.54-2.3,1.54Z" transform="translate(-10.43 28.93)"/><ellipse class="cls-19" cx="440.42" cy="511.08" rx="0.42" ry="21.09"/><path class="cls-3" d="M368.16,490.07c0-1.75,0-3.49,0-5.24,0-1.24.11-2.18,1.76-2.16,1.46,0,1.58.87,1.58,1.94v10.84c0,1.06-.08,2-1.54,2s-1.83-.87-1.8-2.15C368.19,493.56,368.16,491.81,368.16,490.07Z" transform="translate(-10.43 28.93)"/><path class="cls-3" d="M419,109.23c-1.75,0-3.49,0-5.23,0-1.21,0-1.83-.41-1.84-1.73s.82-1.61,1.92-1.61h11.21c1,0,1.62.32,1.63,1.5s-.41,1.85-1.71,1.82C423,109.19,421,109.22,419,109.23Z" transform="translate(-10.43 28.93)"/><path class="cls-3" d="M403.5,105.91c1.62,0,3.24,0,4.85,0,1.23,0,1.39.71,1.39,1.69s-.24,1.66-1.44,1.65q-5.22-.06-10.44,0c-1.35,0-1.66-.72-1.65-1.89s.75-1.43,1.7-1.43C399.78,105.89,401.64,105.9,403.5,105.91Z" transform="translate(-10.43 28.93)"/><path class="cls-7" d="M371.48,474c0,1.62,0,3.23,0,4.85,0,1-.25,1.65-1.45,1.64s-1.9-.24-1.88-1.61c0-3.49,0-7,0-10.46,0-1.1.59-1.46,1.66-1.48s1.64.37,1.64,1.46C371.49,470.27,371.48,472.13,371.48,474Z" transform="translate(-10.43 28.93)"/><path class="cls-20" d="M411.48,453.43h6.72c.94,0,1.82.14,1.69,1.38-.11,1-1,.93-1.72.93q-6.72,0-13.44,0c-.72,0-1.61.06-1.7-1-.1-1.21.79-1.35,1.73-1.35Z" transform="translate(-10.43 28.93)"/><path class="cls-20" d="M71.44,406.25c-2.12,0-4.23,0-6.35,0-.85,0-1.91.09-1.83-1.22.06-.93.83-1.1,1.64-1.1H78.71c.84,0,1.5.29,1.45,1.26s-.9,1-1.63,1C76.17,406.27,73.8,406.25,71.44,406.25Z" transform="translate(-10.43 28.93)"/><path class="cls-19" d="M437.89,482.15c0-2.24,0-4.48,0-6.72,0-.72-.06-1.58,1-1.7s1.32.54,1.33,1.37q0,7.09,0,14.2c0,.84-.42,1.43-1.36,1.33s-.92-.75-.93-1.38C437.88,486.88,437.89,484.52,437.89,482.15Z" transform="translate(-10.43 28.93)"/><path class="cls-4" d="M411.41,508.66c2.25,0,4.49,0,6.73,0,.7,0,1.6-.11,1.71.94s-.62,1.28-1.42,1.29c-4.61,0-9.22,0-13.83,0-.85,0-1.53-.32-1.54-1.22s.9-1,1.62-1C406.92,508.64,409.17,508.66,411.41,508.66Z" transform="translate(-10.43 28.93)"/><path class="cls-4" d="M376,828.62c0-2.12,0-4.24,0-6.36,0-.85-.1-1.94,1.11-2s1.12,1.09,1.13,1.91q0,6.54,0,13.09c0,.81.17,2-1.21,1.8-.91-.11-1.05-.91-1-1.71C376,833.11,376,830.87,376,828.62Z" transform="translate(-10.43 28.93)"/><path class="cls-4" d="M382.73,482.08c0-2.24,0-4.49,0-6.73,0-.77.14-1.58,1.14-1.59s1.08.85,1.09,1.58q0,6.93,0,13.84c0,.6,0,1.34-.88,1.39s-1.34-.52-1.35-1.38C382.71,486.82,382.73,484.45,382.73,482.08Z" transform="translate(-10.43 28.93)"/><path class="cls-21" d="M107.19,370.78c0,2.35,0,4.7,0,7.05,0,.85-.36,1.42-1.31,1.36s-1-.67-1-1.3q0-7,0-14.1c0-.85.3-1.47,1.27-1.35s1,.88,1,1.66Q107.19,367.43,107.19,370.78Z" transform="translate(-10.43 28.93)"/><path class="cls-21" d="M253.39,483.38c0-2.22,0-4.45,0-6.68,0-.87-.07-1.86,1.23-1.77,1,.07,1.07.83,1.07,1.62,0,4.46,0,8.91,0,13.37,0,.9,0,1.85-1.29,1.76s-1-1.2-1-2C253.37,487.59,253.39,485.49,253.39,483.38Z" transform="translate(-10.43 28.93)"/><path class="cls-22" d="M36.17,370.52c0-2.11,0-4.21,0-6.32,0-.94.15-1.8,1.33-1.75,1,0,1,.85,1,1.61,0,4.46,0,8.91,0,13.37,0,.87.05,1.9-1.26,1.77s-1.11-1.13-1.11-2C36.16,375,36.17,372.75,36.17,370.52Z" transform="translate(-10.43 28.93)"/><path class="cls-19" d="M231.7,551.1h-23v-.61h23Z" transform="translate(-10.43 28.93)"/><path class="cls-3" d="M82.47,416.15c0-1.49-.08-3,0-4.47A1.72,1.72,0,0,1,84.15,410a1.75,1.75,0,0,1,1.51,1.8c.08,3,.1,6,0,9,0,2.13-1.4-.16-2,.54-.78.85-1.23.39-1.23-.63,0-1.49,0-3,0-4.48Z" transform="translate(-10.43 28.93)"/><path class="cls-15" d="M213.19,516.44h15.16c.89,0,1.43.4,1.35,1.32s-.91,1-1.65,1C223.05,518.73,218,519.2,213.19,516.44Z" transform="translate(-10.43 28.93)"/><path class="cls-8" d="M414.9,786.43c-2.41.52-3-.57-3-2.82-.09-2.56,1.08-2.76,3.14-2.8s2.76.64,2.76,2.76S417.32,787,414.9,786.43Z" transform="translate(-10.43 28.93)"/><path class="cls-9" d="M403.34,809h16.29l0,.68h-16.3C403.35,809.49,403.34,809.26,403.34,809Z" transform="translate(-10.43 28.93)"/><path class="cls-23" d="M392.83,820.38v16.56c-1.61-5.49-1.35-11-1-16.53Z" transform="translate(-10.43 28.93)"/><path class="cls-24" d="M52.23,379V362.67l.61,0V379Z" transform="translate(-10.43 28.93)"/><path class="cls-24" d="M90.49,379V362.62h.75V379Z" transform="translate(-10.43 28.93)"/><path class="cls-24" d="M188.05,362.63V379h-.92a95.55,95.55,0,0,1-.06-16.4Z" transform="translate(-10.43 28.93)"/><path class="cls-8" d="M409.77,784.12c.21,1.46-.11,2.43-2.3,2.45-2.66,0-2.16-1.63-2.3-3.21-.18-2,.71-2.5,2.59-2.54C410.3,780.77,409.69,782.45,409.77,784.12Z" transform="translate(-10.43 28.93)"/><path class="cls-4" d="M426.27,446.51H396.59V446h29.74Z" transform="translate(-10.43 28.93)"/><path class="cls-25" d="M68,428.9h15.3v.72H68Z" transform="translate(-10.43 28.93)"/><path class="cls-4" d="M375.76,467.26v29.68h-.49V467.4Z" transform="translate(-10.43 28.93)"/><path class="cls-21" d="M359.18,491.93c.36,2.08-1,2-2.46,2.11-2,.14-2.05-1-2.12-2.5-.09-2,.94-2.09,2.5-2.15C359.08,489.33,359.38,490.35,359.18,491.93Z" transform="translate(-10.43 28.93)"/><path class="cls-21" d="M354.67,471.5c-.3-1.8.48-2.36,2.24-2.36s2.33.59,2.35,2.34-.63,2.31-2.36,2.32S354.34,473.3,354.67,471.5Z" transform="translate(-10.43 28.93)"/><path class="cls-26" d="M423.26,94.46c.17,1.62-.15,2.62-2.13,2.55-1.62-.06-2.5-.37-2.5-2.25,0-1.68.41-2.48,2.25-2.44C422.46,92.35,423.62,92.52,423.26,94.46Z" transform="translate(-10.43 28.93)"/><path class="cls-9" d="M423.25,536.71c.3,1.74-.38,2.38-2.19,2.35s-2.46-.45-2.43-2.29.56-2.38,2.35-2.39S423.53,534.91,423.25,536.71Z" transform="translate(-10.43 28.93)"/><path class="cls-9" d="M400.7,534.46c1.73-.33,2.38.39,2.37,2.18,0,1.63-.28,2.5-2.21,2.42-1.6-.08-2.54-.32-2.47-2.23C398.44,535.19,398.78,534.16,400.7,534.46Z" transform="translate(-10.43 28.93)"/><path class="cls-26" d="M398.44,94.35c-.28-2.12,1.19-1.9,2.58-2,2.1-.17,2,1.13,2,2.57.1,2-1,2.07-2.57,2.1C398.48,97,398.31,95.87,398.44,94.35Z" transform="translate(-10.43 28.93)"/><path class="cls-27" d="M414.82,595.25c-1.39-.06-3,.39-2.88-1.82s1.86-1.46,3-1.52,2.87-.52,2.74,1.77S415.85,595,414.82,595.25Z" transform="translate(-10.43 28.93)"/><path class="cls-24" d="M423,51.69H411.15l0-.68H423C423,51.24,423,51.47,423,51.69Z" transform="translate(-10.43 28.93)"/><path class="cls-24" d="M313.19,482.51V470.66l.69,0v11.9Z" transform="translate(-10.43 28.93)"/><path class="cls-2" d="M348.78,817.3v22.81h-.53V817.35Z" transform="translate(-10.43 28.93)"/><path class="cls-2" d="M422.83,142.77H400v-.55H422.8Z" transform="translate(-10.43 28.93)"/><path class="cls-2" d="M422.85,172h-22.8v-.53h22.74Z" transform="translate(-10.43 28.93)"/><path class="cls-28" d="M399.87,588.63h10.87A14.69,14.69,0,0,1,399.87,588.63Z" transform="translate(-10.43 28.93)"/><path class="cls-29" d="M261.42,319.74c-1.57.11-2.6-.17-2.55-1.92.05-1.91,1.39-1.62,2.6-1.68s2.11.15,2.13,1.71C263.63,319.61,262.69,319.94,261.42,319.74Z" transform="translate(-10.43 28.93)"/><path class="cls-30" d="M216.25,309.56h10.39C223.84,311.35,218.53,311.3,216.25,309.56Z" transform="translate(-10.43 28.93)"/><path class="cls-30" d="M226.24,280.79a18.09,18.09,0,0,1-9.79.1C219.71,279.77,223,280.08,226.24,280.79Z" transform="translate(-10.43 28.93)"/><path class="cls-1" d="M163.12,375.64c-1.32-3.2-1.1-6.46-.92-9.72l.92-.06Z" transform="translate(-10.43 28.93)"/><path class="cls-24" d="M423,589.06c-3.23.74-6.44,1.1-9.63,0C416.58,588,419.8,588.43,423,589.06Z" transform="translate(-10.43 28.93)"/><path class="cls-27" d="M452.17,54.13c1.46,0,2.6-.18,2.62,1.59,0,1.6-.78,1.86-2.09,1.79s-2.56.16-2.53-1.8C450.21,53.93,451.43,54.2,452.17,54.13Z" transform="translate(-10.43 28.93)"/><path class="cls-31" d="M313.61,493.77a11.65,11.65,0,0,1,.12-8.63A16.73,16.73,0,0,1,313.61,493.77Z" transform="translate(-10.43 28.93)"/><path class="cls-27" d="M407.19,591.92c1.68-.11,2.63,0,2.6,1.68s-1,1.64-2.22,1.66c-1.38,0-2.5-.07-2.39-1.93S406.6,592,407.19,591.92Z" transform="translate(-10.43 28.93)"/><path class="cls-23" d="M399.87,51.45a13.36,13.36,0,0,1,8.63-.21C405.67,52.69,402.76,51.86,399.87,51.45Z" transform="translate(-10.43 28.93)"/><path class="cls-11" d="M170.55,332c-1.46,0-2.61.23-2.68-1.54s.74-1.91,2-1.81,2.6-.34,2.55,1.72C172.43,332.06,171.36,332,170.55,332Z" transform="translate(-10.43 28.93)"/><path class="cls-5" d="M372.88,836.81V820.62h.52v16.1Z" transform="translate(-10.43 28.93)"/><path class="cls-5" d="M63.66,389.61H79.85v.56H63.56Z" transform="translate(-10.43 28.93)"/><path class="cls-6" d="M414.85,564.86c.95.31,2.68-.61,2.7,1.06,0,2-1.83,1.14-2.91,1.22s-2.66.45-2.54-1.24S413.88,565.16,414.85,564.86Z" transform="translate(-10.43 28.93)"/><path class="cls-26" d="M321,522.6c.11,1.23-.39,1.87-1.68,1.88s-1.86-.45-1.87-1.74.43-1.84,1.74-1.84S321.08,521.27,321,522.6Z" transform="translate(-10.43 28.93)"/><path class="cls-4" d="M229.37,390.25H213.32v-.51h15.95Z" transform="translate(-10.43 28.93)"/><path class="cls-4" d="M213.18,463.93h16.21v.51H213.18Z" transform="translate(-10.43 28.93)"/><ellipse class="cls-4" cx="210.86" cy="531.36" rx="11.51" ry="0.38"/><path class="cls-4" d="M213.3,351.35h16v.56h-16.1Z" transform="translate(-10.43 28.93)"/><path class="cls-32" d="M419.76,559.54a7.88,7.88,0,0,1-7.58,0Z" transform="translate(-10.43 28.93)"/><path class="cls-2" d="M410.12,16.1H422.8l0,.54H410.14Z" transform="translate(-10.43 28.93)"/><path class="cls-12" d="M425.45,7.79c-2-3.34.12-7.11-1.86-10.37-.28-.46.21-.66.53-.7.67-.09,1.3.15,1.31.92C425.47,1,425.45,4.4,425.45,7.79Z" transform="translate(-10.43 28.93)"/><path class="cls-7" d="M130.52,359.27V372.1l-.51,0V359.37Z" transform="translate(-10.43 28.93)"/><ellipse class="cls-3" cx="209.24" cy="583.12" rx="9.19" ry="0.37"/><path class="cls-7" d="M221.18,313.12h11.68v.56h-11.8Z" transform="translate(-10.43 28.93)"/><path class="cls-2" d="M407.31,564.85c1.05.22,2.42-.41,2.33,1.25-.06,1.22-1.11,1.07-2,1.06s-2.24.26-2.35-1.09C405.2,564.44,406.73,565.23,407.31,564.85Z" transform="translate(-10.43 28.93)"/><path class="cls-30" d="M402.15,559.7a15.55,15.55,0,0,1,8.31-.13C407.46,561,405.34,560.87,402.15,559.7Z" transform="translate(-10.43 28.93)"/><path class="cls-4" d="M208.65,432.42h11.77V433H208.65Z" transform="translate(-10.43 28.93)"/><path class="cls-4" d="M208.47,419.64c3.89-2.3,8-.37,11.92-1.06l0,1h-12Z" transform="translate(-10.43 28.93)"/><path class="cls-2" d="M233.46,259.27a20.62,20.62,0,0,1,0,10.55Z" transform="translate(-10.43 28.93)"/><path class="cls-3" d="M122.57,358.21a21.22,21.22,0,0,1-10.59,0Z" transform="translate(-10.43 28.93)"/><path class="cls-12" d="M259.22,468.41h10.47l0,.42H259.24Z" transform="translate(-10.43 28.93)"/><path class="cls-33" d="M65.29,429.2c-1.7,1.19-3.43,1.09-5.86.22C61.73,428.13,63.53,428.63,65.29,429.2Z" transform="translate(-10.43 28.93)"/><path class="cls-34" d="M349.72,481.17c-1.16-2.62-1.23-4.35,0-6.86A10.68,10.68,0,0,1,349.72,481.17Z" transform="translate(-10.43 28.93)"/><path class="cls-3" d="M223.36,419.31c3.14-1,6.34-.68,9.55-.22C229.76,420,226.59,419.65,223.36,419.31Z" transform="translate(-10.43 28.93)"/><path class="cls-8" d="M85.74,424.87c.1,1.69-.91,1.65-1.92,1.62-.8,0-1.46-.22-1.36-1.22.16-1.51,1.66-1.29,2.5-1.61C86.08,423.22,85.49,424.57,85.74,424.87Z" transform="translate(-10.43 28.93)"/><path class="cls-4" d="M416.18,48.2h-9.53v-.54h9.53Z" transform="translate(-10.43 28.93)"/><path class="cls-4" d="M67.08,462.11c3-1,6.08-.68,9.21,0Z" transform="translate(-10.43 28.93)"/><path class="cls-4" d="M309.94,487v-9.29l.41,0V487Z" transform="translate(-10.43 28.93)"/><path class="cls-4" d="M208.75,313.66a16.47,16.47,0,0,1,9.36,0Z" transform="translate(-10.43 28.93)"/><path class="cls-35" d="M349.72,482a9.41,9.41,0,0,1,.12,6.09A5.47,5.47,0,0,1,349.72,482Z" transform="translate(-10.43 28.93)"/><path class="cls-6" d="M130.27,383.33a19.73,19.73,0,0,1-.16-9.29A18.27,18.27,0,0,1,130.27,383.33Z" transform="translate(-10.43 28.93)"/><path class="cls-6" d="M411.28,790.53a17.9,17.9,0,0,1,9.3-.13A20.14,20.14,0,0,1,411.28,790.53Z" transform="translate(-10.43 28.93)"/><path class="cls-5" d="M399.72,16.89c2.36-2.12,4.95-.65,7.45-.53-2.46.95-5,.61-7.53.45Z" transform="translate(-10.43 28.93)"/><path class="cls-36" d="M220.28,546.71c-.74-1.19-3.22-1.2-2.28-3.28a1.69,1.69,0,0,1,2.75-.62C223,544.45,220.28,545.34,220.28,546.71Z" transform="translate(-10.43 28.93)"/><path class="cls-37" d="M351.78,827.7c2.19,1.45,2.7-1.64,4.42.16,1.59,1.65-1.71,2,.33,4.07C354.12,830.75,353.37,829.7,351.78,827.7Z" transform="translate(-10.43 28.93)"/><path class="cls-38" d="M399.72,767.53c-1.13-.13-1.36-.9-1.34-1.83s.1-1.83,1.31-1.79a2.12,2.12,0,0,1,2.05,1.77C401.74,766.48,400.75,767.27,399.72,767.53Z" transform="translate(-10.43 28.93)"/></svg>